<svg width="332" height="328" viewBox="0 0 332 328" fill="none" xmlns="http://www.w3.org/2000/svg">
<path d="M165.973 -1.70606e-05C74.4547 -1.70606e-05 0 73.376 0 163.569C0 253.751 74.4547 327.119 165.973 327.119C257.492 327.119 331.947 253.751 331.947 163.569C331.947 73.376 257.492 -1.70606e-05 165.973 -1.70606e-05ZM326.023 163.569C326.023 250.483 254.224 321.195 165.973 321.195C77.7213 321.195 5.92269 250.483 5.92269 163.569C5.92269 76.6427 77.7213 5.92264 165.973 5.92264C254.224 5.92264 326.023 76.6427 326.023 163.569Z" fill="#2E3591"/>
<path d="M10.9253 163.569C10.9253 247.795 80.48 316.315 165.973 316.315C251.467 316.315 321.021 247.795 321.021 163.569C321.021 79.3453 251.467 10.8013 165.973 10.8013C80.48 10.8013 10.9253 79.3453 10.9253 163.569Z" fill="#2E3591"/>
<path d="M79.5694 252.029C77.4467 249.737 68.9094 246.311 64.3374 242.492C58.5534 238.312 60.3841 244.403 60.3841 244.403C68.6067 250.872 78.66 258.117 78.66 258.117C82.0067 257.736 81.716 253.544 79.5694 252.029Z" fill="white"/>
<path d="M92.3746 234.876C92.072 230.697 91.0506 222.835 90.2413 220.027C88.612 211.917 86.8933 216.981 86.8933 216.981C86.5786 223.464 87.5 228.405 88.1066 234.876C90.2413 243.639 92.3746 234.876 92.3746 234.876Z" fill="white"/>
<path d="M46.9267 230.531C52.0493 230.315 66.72 231.012 82.4454 243.536V243.56L82.468 243.548C87.096 247.244 91.8134 251.984 96.408 258.016L96.3854 258.039C96.408 258.061 96.5774 258.287 96.88 258.623C97.408 259.341 97.936 260.073 98.464 260.824C91.6333 263.273 66.192 269.195 46.9267 230.531ZM42.816 186.576C47.5574 189.136 60.5187 196.897 65.7307 207.873L65.9333 207.716C65.0573 213.005 64.9107 218.072 65.068 222.273C64.236 222.352 63.8893 222.071 63.428 222.071C61.3947 222.071 54.284 205.807 53.072 203.525C48.8027 199.717 49.0053 204.041 48.6 205.052C51.24 211.917 58.744 220.296 61.1933 222.565C62.8213 224.419 61.6413 227.596 60.8907 229.203C58.5973 228.587 56.4747 228.183 54.5774 227.912L54.768 227.643H54.7787C54.6774 227.531 44.4454 215.995 42.816 186.576ZM47.1734 145.597C50.476 149.147 59.3387 159.728 60.6534 172.241C57.7107 176.712 55.936 181.149 54.8907 184.709C51.824 183.429 50.824 165.525 50.824 162.648C49.8133 155.797 47.9827 159.099 47.5787 160.111C48.3987 164.941 48.3987 169.513 50.2187 177.375C51.532 182.98 49.836 185.631 48.7573 186.676C47.8253 186.081 46.96 185.564 46.164 185.092C45.3773 181.723 41.648 163.637 47.1734 145.597ZM61.496 118.392C63.8333 121.335 69.472 129.759 68.056 140.948C64.9454 142.487 62.4067 144.587 60.4067 146.653C56.452 144.597 63.012 132.185 63.012 132.185C65.0574 124.075 60.788 128.119 59.9787 129.893C59.4067 133.241 56.3173 138.396 54.464 141.26C55.3853 135.016 57.3293 126.231 61.496 118.392ZM73.3134 99.4853C74.8747 102.643 78.1547 109.944 78.648 116.752C76.312 118.817 74.256 121.087 72.584 123.153C71.348 121.985 71.864 116.887 71.5494 112.371C72.168 103.239 69.516 110.348 69.516 110.348C69.2134 113.135 67.516 118.604 66.6293 121.356C65.664 119.604 64.696 118.144 63.8894 117.065C64.72 114.796 67.7414 107.159 73.3134 99.4853ZM96.8013 79.884C96.352 83.6373 94.6107 92.432 87.7587 101.553C84.4333 100.127 91.972 90.7573 91.972 90.7573C95.24 82.0973 90.14 88.4666 88.7013 89.9946C84.568 96.1386 80.536 103.003 78.7947 106.012C78.424 104.935 78.0413 103.912 77.66 102.957C79.2773 99.1266 86.6467 83.04 96.8013 79.884ZM98.7227 83.6373C98.8227 83.5027 108.741 71.3253 123.963 67.82C120.941 73.3026 113.685 85.356 105.169 91.5106L105.215 91.6C104.575 91.4986 103.956 91.4106 103.373 91.364C104.248 88.5346 107.82 84.4893 110.327 81.6586C114.965 74.8746 111.785 75.864 110.864 76.3573C106.697 78.952 100.991 87.7706 98.7227 91.4546C97.7667 91.6 96.9133 91.792 96.1947 91.9933C97.4867 88.804 98.2614 85.928 98.7227 83.6253V83.6373ZM96.2734 107.405C95.34 106.641 96.6547 103.765 97.9573 101.711C100.597 95.88 97.5533 98.924 96.1267 99.688C93.24 100.891 88.2307 108.54 86.2307 111.741C84.3773 112.539 82.592 113.628 80.9293 114.897C80.8387 114.235 80.7493 113.595 80.6253 112.955C87.32 107.383 91.6334 101.385 94.408 95.948C95.3747 95.3866 99.5987 93.3413 106.271 94.9146C104.293 97.7226 100.361 103.103 96.2734 107.405ZM75.1333 138.273L75.2894 138.745C74.9534 138.789 74.6054 138.836 74.2787 138.892C75.4027 134.207 79.4134 128.129 82.12 124.075C86.3894 115.931 83.1307 116.953 81.5013 120.009C80.188 122.48 73.2014 131.691 70.6507 135.027C70.5614 133.645 70.3813 132.331 70.1333 131.061C71.572 128.815 79.1547 117.492 87.916 114.257C87.276 119.492 84.7373 133.128 75.1333 138.273ZM65.9894 165.188L66.18 165.457C65.9894 165.627 65.8214 165.805 65.6414 165.984C62.496 165.525 67.2694 156.425 68.708 153.505C71.5494 148.428 70.5387 147.169 70.5387 147.169C68.304 146.407 66.2693 148.945 65.4613 151.731C63.8893 157.065 61.4293 159.548 60.092 160.537C59.2947 158.593 58.3734 156.763 57.4174 155.056C59.272 151.888 65.7427 142.396 76.9187 141.643C76.256 145.821 73.8307 156.808 65.9894 165.188ZM76.8174 161.008C76.7387 167.143 76.1214 184.001 71.9427 190.101L72.1787 190.349C70.7187 192.707 69.528 195.191 68.572 197.717C68.236 197.359 67.832 197.1 67.4947 196.92C65.664 193.876 67.2813 185.003 68.1013 181.453C70.5387 174.084 66.068 176.869 66.068 176.869C64.652 178.643 64.4387 183.721 63.8333 188.035C63.8333 194.505 62.3387 196.369 61.2147 196.843C59.508 195.011 57.688 193.336 55.8573 191.831C56.2733 188.44 59.2387 170.657 76.8174 161.008ZM82.928 212.905L83.2094 212.871C81.592 220.656 81.232 227.463 81.356 232.697C80.1654 232.463 79.7387 231.372 78.2667 229.933C76.8293 227.137 76.6387 220.791 75.8187 213.432C75.008 203.525 72.56 208.356 72.56 208.356C71.7507 214.197 72.3694 218.252 74.1894 229.171C75.1214 231.664 73.7053 233.056 72.628 233.743C71.224 233.013 69.8427 232.383 68.4827 231.809C67.8534 228.363 63.8333 203.189 77.4013 187.777C78.8733 191.405 82.2427 200.864 82.928 212.905ZM88.556 202.751C91.6227 209.603 99.5533 230.08 97.3627 254.849C93.14 249.468 88.8253 245.109 84.5573 241.616C83.928 237.82 81.94 221.947 88.556 202.751ZM99.5534 257.523C103.216 224.957 90.0053 199.705 89.432 198.628L88.2414 196.392L87.3094 198.808C86.3214 201.424 85.4774 204.009 84.7814 206.491C83.0854 193.675 78.9853 185.003 78.7947 184.587L78.064 183.081L76.964 184.193L76.8627 184.307C79.424 173.916 79.2774 159.481 79.2774 158.696L79.244 156.493L77.604 157.303C76.0427 158.065 74.6053 158.897 73.2347 159.773C78.6947 150.236 79.5253 140.711 79.5693 140.205L79.704 138.577C86.9494 132.32 89.376 121.637 90.1627 116.009C98.0027 112.101 108.977 95.668 109.46 94.948L110.685 93.0946L108.832 92.4986L108.584 92.432C119.211 83.4226 127.185 67.3146 127.545 66.5853L128.86 63.9L126.355 64.2813C113.212 66.2933 103.575 74.5827 99.3507 78.8733C99.3734 78.38 99.3854 78.0653 99.3854 77.9747V76.2333L97.992 76.4693C87.028 78.38 79.132 93.4653 76.2787 99.744C75.312 97.644 74.56 96.296 74.4814 96.1493L73.628 94.6333L72.6054 95.9707C66.708 103.631 63.3373 111.437 62.0347 114.853L61.0573 113.853L60.2933 115.179C53.6893 126.681 51.9027 140.217 51.42 146.293C49.252 143.643 47.6013 142.071 47.3987 141.891L46.164 140.711L45.5454 142.508C39.6934 159.593 41.9627 176.644 43.2987 183.497C42.524 183.092 42.0294 182.868 41.9174 182.812L40.176 181.992L40.2667 184.307C41.2093 209.164 47.96 222.363 51.42 227.576C47.2867 227.283 44.7707 227.643 44.6814 227.665L42.8494 227.957L43.792 229.945C66.8653 278.775 100.587 263.184 101.047 262.959" fill="white"/>
<path d="M252.367 252.029C254.501 249.737 263.025 246.311 267.599 242.492C273.395 238.312 271.563 244.403 271.563 244.403C263.34 250.872 253.276 258.117 253.276 258.117C249.94 257.736 250.231 253.544 252.367 252.029Z" fill="white"/>
<path d="M239.571 234.876C239.875 230.697 240.885 222.835 241.695 220.027C243.335 211.917 245.055 216.981 245.055 216.981C245.357 223.464 244.445 228.405 243.84 234.876C241.695 243.639 239.571 234.876 239.571 234.876Z" fill="white"/>
<path d="M233.484 260.824C234.011 260.073 234.527 259.341 235.067 258.623C235.359 258.287 235.539 258.061 235.561 258.039L235.539 258.016C240.133 251.984 244.851 247.244 249.48 243.548L249.491 243.56L249.501 243.536C265.227 231.012 279.896 230.315 285.02 230.531C265.756 269.195 240.301 263.273 233.484 260.824ZM277.157 227.643H277.168L277.371 227.912C275.472 228.183 273.337 228.587 271.047 229.203C270.293 227.596 269.125 224.419 270.755 222.565C273.192 220.296 280.707 211.917 283.347 205.052C282.943 204.041 283.145 199.717 278.876 203.525C277.652 205.807 270.552 222.071 268.519 222.071C268.057 222.071 267.709 222.352 266.867 222.273C267.024 218.072 266.88 213.005 266.001 207.716L266.217 207.873C271.428 196.897 284.391 189.136 289.119 186.576C287.503 215.995 277.269 227.531 277.157 227.643ZM285.773 185.092C284.987 185.564 284.121 186.081 283.176 186.676C282.112 185.631 280.415 182.98 281.728 177.375C283.549 169.513 283.549 164.941 284.369 160.111C283.953 159.099 282.132 155.797 281.112 162.648C281.112 165.525 280.112 183.429 277.056 184.709C276.001 181.149 274.236 176.712 271.293 172.241C272.608 159.728 281.459 149.147 284.761 145.597C290.3 163.637 286.559 181.723 285.773 185.092ZM277.472 141.26C275.629 138.396 272.54 133.241 271.968 129.893C271.16 128.119 266.88 124.075 268.924 132.185C268.924 132.185 275.495 144.597 271.54 146.653C269.541 144.587 267.001 142.487 263.891 140.948C262.464 129.759 268.115 121.335 270.451 118.392C274.608 126.231 276.561 135.016 277.472 141.26ZM268.047 117.065C267.249 118.144 266.283 119.604 265.317 121.356C264.419 118.604 262.711 113.135 262.431 110.348C262.431 110.348 259.78 103.239 260.396 112.371C260.083 116.887 260.6 121.985 259.365 123.153C257.691 121.087 255.623 118.817 253.299 116.752C253.792 109.944 257.06 102.643 258.623 99.4853C264.195 107.159 267.217 114.796 268.047 117.065ZM254.287 102.957C253.893 103.912 253.511 104.935 253.152 106.012C251.4 103.003 247.38 96.1386 243.233 89.9946C241.805 88.4666 236.707 82.0973 239.964 90.7573C239.964 90.7573 247.513 100.127 244.177 101.553C237.336 92.432 235.596 83.6373 235.147 79.884C245.3 83.04 252.659 99.1266 254.287 102.957ZM233.236 83.6253C233.684 85.928 234.46 88.804 235.741 91.9933C235.023 91.792 234.18 91.6 233.225 91.4546C230.955 87.7706 225.239 78.952 221.083 76.3573C220.163 75.864 216.971 74.8746 221.611 81.6586C224.115 84.4893 227.687 88.5346 228.575 91.364C227.979 91.4106 227.372 91.4986 226.732 91.6L226.767 91.5106C218.263 85.356 210.995 73.3026 207.973 67.82C223.195 71.3253 233.113 83.5027 233.225 83.6373L233.236 83.6253ZM225.677 94.9146C232.336 93.3413 236.571 95.3866 237.549 95.948C240.301 101.385 244.627 107.383 251.309 112.955C251.197 113.595 251.097 114.235 251.017 114.897C249.344 113.628 247.568 112.539 245.716 111.741C243.716 108.54 238.695 100.891 235.808 99.688C234.392 98.924 231.337 95.88 233.977 101.711C235.292 103.765 236.595 106.641 235.673 107.405C231.585 103.103 227.653 97.7226 225.677 94.9146ZM244.02 114.257C252.792 117.492 260.387 128.815 261.813 131.061C261.567 132.331 261.387 133.645 261.285 135.027C258.745 131.691 251.748 122.48 250.445 120.009C248.816 116.953 245.557 115.931 249.828 124.075C252.535 128.129 256.533 134.207 257.668 138.892C257.331 138.836 256.995 138.789 256.645 138.745L256.803 138.273C247.199 133.128 244.661 119.492 244.02 114.257ZM255.028 141.643C266.217 142.396 272.675 151.888 274.528 155.056C273.573 156.763 272.653 158.593 271.844 160.537C270.507 159.548 268.047 157.065 266.487 151.731C265.667 148.945 263.644 146.407 261.409 147.169C261.409 147.169 260.396 148.428 263.239 153.505C264.677 156.425 269.451 165.525 266.305 165.984C266.125 165.805 265.945 165.627 265.767 165.457L265.959 165.188C258.116 156.808 255.691 145.821 255.028 141.643ZM276.079 191.831C274.259 193.336 272.44 195.011 270.731 196.843C269.597 196.369 268.115 194.505 268.115 188.035C267.507 183.721 267.295 178.643 265.88 176.869C265.88 176.869 261.409 174.084 263.845 181.453C264.655 185.003 266.283 193.876 264.452 196.92C264.115 197.1 263.7 197.359 263.363 197.717C262.419 195.191 261.228 192.707 259.757 190.349L260.004 190.101C255.815 184.001 255.209 167.143 255.117 161.008C272.697 170.657 275.675 188.44 276.079 191.831ZM254.535 187.777C268.115 203.189 264.081 228.363 263.464 231.809C262.105 232.383 260.724 233.013 259.319 233.743C258.229 233.056 256.815 231.664 257.757 229.171C259.577 218.252 260.184 214.197 259.376 208.356C259.376 208.356 256.948 203.525 256.129 213.432C255.308 220.791 255.108 227.137 253.692 229.933C252.197 231.372 251.772 232.463 250.591 232.697C250.715 227.463 250.343 220.656 248.737 212.871L249.019 212.905C249.704 200.864 253.072 191.405 254.535 187.777ZM247.391 241.616C243.121 245.109 238.807 249.468 234.585 254.849C232.393 230.08 240.313 209.603 243.38 202.751C249.996 221.947 248.019 237.82 247.391 241.616ZM230.899 262.959C231.36 263.184 265.081 278.775 288.155 229.945L289.097 227.957L287.268 227.665C287.175 227.643 284.649 227.283 280.527 227.576C283.987 222.363 290.737 209.164 291.669 184.307L291.771 181.992L290.031 182.812C289.905 182.868 289.411 183.092 288.648 183.497C289.985 176.644 292.253 159.593 286.401 142.508L285.783 140.711L284.537 141.891C284.347 142.071 282.695 143.643 280.527 146.293C280.044 140.217 278.257 126.681 271.641 115.179L270.889 113.853L269.912 114.853C268.609 111.437 265.239 103.631 259.341 95.9707L258.319 94.6333L257.465 96.1493C257.376 96.296 256.623 97.644 255.659 99.744C252.803 93.4653 244.907 78.38 233.944 76.4693L232.563 76.2333V77.9747C232.563 78.0653 232.563 78.38 232.596 78.8733C228.361 74.5827 218.733 66.2933 205.592 64.2813L203.088 63.9L204.4 66.5853C204.761 67.3146 212.736 83.4226 223.363 92.432L223.115 92.4986L221.251 93.0946L222.476 94.948C222.957 95.668 233.933 112.101 241.775 116.009C242.571 121.637 244.985 132.32 252.241 138.577L252.367 140.205C252.411 140.711 253.241 150.236 258.712 159.773C257.341 158.897 255.893 158.065 254.343 157.303L252.703 156.493L252.668 158.696C252.659 159.481 252.523 173.916 255.072 184.307L254.973 184.193L253.872 183.081L253.152 184.587C252.949 185.003 248.861 193.675 247.165 206.491C246.457 204.009 245.627 201.424 244.627 198.808L243.716 196.392L242.513 198.628C241.952 199.705 228.731 224.957 232.393 257.523" fill="white"/>
<path d="M98.4413 222.251L70.0894 266.553C75.796 272.687 95.4987 288.592 95.4987 288.592L123.592 248.975L98.688 258.679L98.4413 222.251Z" fill="#2E3591"/>
<path d="M98.4414 222.251L97.204 221.459L68.24 266.72L69.0147 267.553C70.508 269.157 72.8253 271.311 75.492 273.681C83.4827 280.779 94.5667 289.727 94.576 289.735L95.792 290.716L127.621 245.828L100.141 256.537L99.8747 217.287L97.204 221.459L98.4414 222.251L96.9734 222.26L97.2347 260.82L119.563 252.12L94.3014 287.744L95.4987 288.592L96.42 287.451C96.4187 287.449 96.1147 287.204 95.5653 286.759C93.6467 285.197 88.7627 281.208 83.744 276.945C81.2347 274.815 78.6907 272.615 76.472 270.62C74.2534 268.628 72.352 266.832 71.164 265.553L70.0894 266.553L71.3253 267.344L99.6774 223.041L98.4414 222.251Z" fill="white"/>
<path d="M233.495 222.251L261.857 266.553C256.14 272.687 236.448 288.592 236.448 288.592L208.355 248.975L233.248 258.679L233.495 222.251Z" fill="#2E3591"/>
<path d="M233.495 222.251L232.259 223.041L260.621 267.345L261.857 266.553L260.784 265.552C259.421 267.016 257.133 269.149 254.5 271.487C250.548 274.997 245.8 278.993 242.044 282.107C240.165 283.663 238.536 285 237.375 285.947C236.215 286.895 235.528 287.449 235.527 287.451L236.448 288.592L237.645 287.744L212.385 252.12L234.701 260.82L234.961 222.26L233.495 222.251L232.027 222.24L231.795 256.536L204.324 245.828L236.155 290.716L237.371 289.735C237.376 289.731 242.304 285.749 247.953 280.996C250.779 278.619 253.785 276.049 256.449 273.681C259.117 271.312 261.435 269.157 262.931 267.555L263.708 266.721L232.06 217.288L232.027 222.24L233.495 222.251Z" fill="white"/>
<path d="M165.973 285.504C182.789 285.504 198.415 290.479 211.333 298.983L224.868 264.835C207.536 255.164 187.429 249.625 165.973 249.625C144.519 249.625 124.412 255.164 107.08 264.835L120.615 298.983C133.533 290.479 149.147 285.504 165.973 285.504Z" fill="#2E3591"/>
<path d="M165.973 285.504V286.972C182.499 286.972 197.841 291.86 210.525 300.209L212.032 301.201L226.707 264.18L225.583 263.553C208.039 253.763 187.683 248.157 165.973 248.157C144.265 248.157 123.909 253.763 106.364 263.553L105.241 264.18L119.915 301.201L121.421 300.209C134.107 291.859 149.437 286.972 165.973 286.972V285.504V284.036C148.856 284.036 132.959 289.099 119.808 297.757L120.615 298.983L121.979 298.443L108.444 264.293L107.08 264.835L107.795 266.116C124.913 256.565 144.772 251.093 165.973 251.093C187.176 251.093 207.033 256.565 224.153 266.116L224.868 264.835L223.504 264.293L209.968 298.443L211.333 298.983L212.14 297.757C198.988 289.099 183.08 284.036 165.973 284.036V285.504Z" fill="white"/>
<path d="M139.048 267.745L138.228 266.509L136.499 261.948L139.329 262.083L139.677 262.24C139.868 262.643 140.127 262.891 140.475 263.004L141.307 263.016C141.531 262.971 141.891 262.915 142.384 262.869C143.8 263.205 145.192 263.544 146.552 263.879L141.531 264.957L144.991 278.46C143.956 278.28 142.688 278.067 141.069 277.629L139.385 270.777C138.352 269.912 137.319 269.429 136.331 269.295C133.948 271.697 131.68 274.012 129.703 276.585C128.084 276.944 126.421 277.224 124.839 277.719C125.411 276.843 126.029 275.967 126.681 275.145C126.837 274.988 126.849 274.776 126.725 274.517C126.421 273.856 125.895 273.675 125.165 273.989C124.839 274.124 124.4 274.417 123.851 274.832C122.928 275.539 122.367 275.944 122.143 276.057C121.671 276.304 121.12 276.427 120.525 276.437C119.817 276.427 119.38 276.292 119.211 276.012C118.987 275.619 119.211 274.821 119.929 273.607C120.581 272.552 121.267 271.676 121.963 270.98C123.255 269.676 125.187 268.643 127.591 267.575C129.825 266.688 132.072 266.352 134.184 266.372C136.128 266.485 137.756 266.959 139.048 267.745ZM128.927 272.675C130.117 271.203 131.444 269.968 132.769 268.587C131.523 268.529 130.364 268.665 129.308 269.047C127.029 269.945 125.568 271.045 124.905 272.215C125.76 271.912 126.568 271.809 127.299 271.923C128.029 272.035 128.58 272.281 128.927 272.675Z" fill="white"/>
<path d="M150.348 282.031C150.101 282.067 149.888 282.055 149.685 281.943C148.821 281.493 147.293 280.999 145.035 280.493C144.585 280.369 144.193 280.28 143.833 280.156L143.452 280.032C142.688 280.796 142.16 281.303 141.811 281.572C141.16 282.077 140.419 282.415 139.599 282.684C138.531 283.067 137.543 283.256 136.621 283.267C135.476 283.312 134.735 283.055 134.409 282.528C133.993 281.831 134.105 281.088 134.803 280.313C135.499 279.527 136.532 278.887 137.891 278.416C138.801 278.089 140.003 278.044 141.363 278.101C141.329 277.864 141.216 277.575 141.036 277.201C140.835 276.753 140.699 276.449 140.655 276.304C140.835 276.124 141.013 275.988 141.171 275.955C141.789 275.776 142.452 275.9 143.181 276.315C143.823 276.663 144.227 277.067 144.351 277.427L144.463 277.875L144.641 278.371C145.664 278.549 146.44 278.753 146.979 278.988C149.033 279.537 150.327 280.304 150.944 281.312L151 281.604C150.888 281.841 150.673 281.988 150.348 282.031ZM138.441 280.212C137.441 280.617 136.981 280.931 137.083 281.179C137.172 281.448 137.509 281.471 138.071 281.268C138.419 281.156 138.88 280.887 139.464 280.573C140.059 280.247 140.352 280.044 140.329 279.965C139.957 279.853 139.307 279.875 138.441 280.212Z" fill="white"/>
<path d="M175.465 260.241L174.341 258.375C172.511 257.253 170.939 256.645 169.692 256.173C165.435 254.601 160.873 254.04 156.279 254.42C154.673 254.568 153.28 254.825 152.157 255.185C150.101 255.927 148.552 256.669 147.507 257.376C147.112 257.656 146.451 258.241 145.552 259.184C145.159 259.6 145.012 260.06 145.125 260.565C145.192 260.892 145.484 261.116 146.012 261.273L147.596 261.768C145.136 262.128 142.732 262.756 140.317 263.273C141.767 263.587 143.204 263.915 144.62 264.24C145.856 263.971 147.103 263.711 148.36 263.544L150.528 275.585C151.785 276.024 153.011 276.437 154.212 276.876L152.292 262.936C154.133 262.689 155.987 262.577 157.841 262.397C156.481 261.88 155.1 261.387 153.707 260.892C152.752 260.96 151.808 261.116 150.865 261.261L149.752 260.453C149.697 260.309 150.033 259.904 150.799 259.229C151.472 258.668 152.056 258.197 152.561 257.904C154.887 256.961 157.121 256.364 159.189 256.207C162.941 256.085 166.321 256.432 169.175 257.6C171.321 258.409 173.409 259.241 175.465 260.241Z" fill="white"/>
<path d="M186.169 264.072C184.992 263.139 183.756 262.352 182.508 261.476C172.152 259.904 161.592 259.724 151.213 261.207C152.663 261.611 154.089 262.161 155.504 262.689C162.604 261.971 169.78 261.948 176.881 262.712L176.644 264.915L176.24 264.644L175.353 263.971C174.612 263.567 173.645 263.296 172.479 263.161C171.848 263.116 171.164 263.229 170.433 263.497C169.703 263.745 169.141 264.027 168.772 264.317L168.399 264.06C166.839 263.229 164.973 262.869 162.873 262.971C160.84 263.048 159.199 263.531 158.043 264.553C157.043 265.452 156.627 266.396 156.719 267.408C156.84 268.621 157.684 269.519 159.189 270.115C160.695 270.709 162.559 271.091 164.793 271.001C166.895 270.912 168.321 270.576 169.119 269.609C169.411 269.295 169.287 268.755 168.748 268.036C168.119 267.127 167.019 266.621 165.479 266.643C164.513 266.677 163.681 266.868 162.997 267.228C162.323 267.587 161.997 268.013 162.02 268.485C162.031 268.699 162.109 268.913 162.256 269.115C161.008 268.913 160.357 268.451 160.312 267.745C160.3 267.621 160.345 267.451 160.436 267.228C160.615 266.711 161.087 266.308 161.84 265.969C162.604 265.653 163.513 265.485 164.557 265.452C165.997 265.372 167.153 265.653 167.996 266.104C168.287 266.228 168.76 266.576 169.421 267.116C169.759 267.408 169.736 267.721 169.377 268.081L172.061 267.653C171.848 266.789 171.883 266.239 172.164 265.992C172.433 265.723 172.872 265.643 173.455 265.699C174.128 265.767 174.792 265.992 175.443 266.363C176.093 266.755 176.397 267.116 176.364 267.451L175.544 274.956C176.601 275.652 177.644 276.369 178.644 277.168L180.745 263.184C182.553 263.476 184.372 263.689 186.169 264.072Z" fill="white"/>
<path d="M213.948 273.911C213.129 272.777 212.287 271.652 211.411 270.508C210.309 269.889 209.725 269.419 209.624 269.091C209.613 268.699 209.604 268.316 209.613 267.969C209.119 267.385 208.411 266.621 207.467 265.665L206.447 268.709L205.636 271.708L205.267 271.069C203.727 268.171 202.132 266.576 200.808 266.104C200.559 266.015 200.088 265.903 199.415 265.745C196.932 265.216 194.977 265.465 193.684 266.015C193.505 265.699 193.191 265.352 192.764 264.957C192.729 264.924 192.315 264.531 191.472 263.879C190.496 263.285 189.28 262.824 187.879 262.521C185.519 261.948 183.115 261.667 180.733 261.285C181.957 262.105 183.16 262.915 184.328 263.733C187.417 264.284 188.417 264.587 187.36 264.329C188.384 264.565 189.225 264.891 189.877 265.317C190.327 265.723 190.641 266.048 190.832 266.317L190.192 266.363C188.687 266.621 187.709 266.811 187.236 266.992C186.384 267.293 185.889 267.765 185.765 268.395C185.721 268.564 185.731 268.755 185.788 268.979C186.193 270.148 187.236 270.912 188.933 271.271C190.631 271.652 192.067 271.676 193.393 271.115C194.215 272.169 195.336 272.844 196.728 273.383C198.401 273.967 199.616 274.033 200.403 273.619C200.705 273.517 200.952 273.225 201.155 272.753C201.368 272.225 201.177 271.575 200.548 270.809C200.188 270.419 199.48 269.755 198.381 268.844C198.751 268.564 199.549 268.587 200.761 268.945C201.616 269.204 202.48 269.879 203.244 271.193C203.907 272.327 204.153 273.045 204.019 273.36L200.324 281.067C201.132 282.111 201.931 283.109 202.671 284.167L209.053 271.451L213.948 273.911Z" fill="white"/>
<path d="M148.843 53.3973C141.62 50.0053 138.127 45.0173 136.464 40.7933C139.891 42.468 144.339 45.1746 149.417 49.5106C149.281 51.3306 149.091 52.5213 148.843 53.3973ZM151.011 59.6426C153.067 56.6546 154.191 55.9133 154.561 47.3653C140.373 34.5253 129.916 33.2347 129.916 33.2347C129.916 35.2787 130.285 52.7573 151.011 59.6426Z" fill="white"/>
<path d="M148.159 74.4146C136.128 71.2906 129.017 62.5413 125.3 56.1266C130.736 57.452 138.317 60.26 146.608 66.236L146.664 66.2813C147.956 67.18 148.327 69.2133 148.327 71.4826C148.327 72.4373 148.26 73.4373 148.159 74.4146ZM149.54 62.204C132.072 49.6013 117.031 49.96 117.031 49.96C117.773 53.06 126.872 77.3573 152.505 80.288C152.876 75.7173 155.291 66.2253 149.54 62.204Z" fill="white"/>
<path d="M149.888 30.2573L153.247 34.728L152.876 36.952L149.888 35.8293V30.2573ZM145.788 38.076L155.493 45.3093C155.493 45.3093 157.728 35.2786 157.357 32.1106C157.357 32.1106 154.191 24.304 148.024 20.3946C143.912 26.9106 144.844 33.4027 145.405 37.8733L145.788 38.076Z" fill="white"/>
<path d="M168.456 74.808C167.435 74.808 165.884 74.808 163.492 74.808C161.907 59.98 164.019 39.76 165.973 30.9093C167.928 39.76 170.04 59.98 168.456 74.808ZM155.617 79.244C160.604 80.5586 161.391 81.592 161.391 81.592V86.8146H164.783H167.153H170.557V81.592C170.557 81.592 171.341 80.5586 176.32 79.244C177.745 54.712 170.153 26.932 165.973 16.036C161.795 26.932 154.201 54.712 155.617 79.244Z" fill="white"/>
<path d="M195.471 40.7933C193.809 45.0173 190.316 50.0053 183.092 53.3973C182.844 52.5213 182.655 51.3306 182.52 49.5106C187.609 45.1746 192.057 42.468 195.471 40.7933ZM202.032 33.2347C202.032 33.2347 191.573 34.5253 177.387 47.3653C177.757 55.9133 178.88 56.6546 180.936 59.6426C201.66 52.7573 202.032 35.2787 202.032 33.2347Z" fill="white"/>
<path d="M183.779 74.4146C183.687 73.4373 183.62 72.4373 183.62 71.4826C183.62 69.2133 183.992 67.18 185.283 66.2813L185.339 66.236C193.617 60.26 201.2 57.452 206.648 56.1266C202.917 62.5413 195.82 71.2906 183.779 74.4146ZM182.407 62.204C176.644 66.2253 179.072 75.7173 179.443 80.288C205.075 77.3573 214.173 53.06 214.916 49.96C214.916 49.96 199.863 49.6013 182.407 62.204Z" fill="white"/>
<path d="M182.059 30.2573V35.8293L179.072 36.952L178.689 34.728L182.059 30.2573ZM186.159 38.076L186.529 37.8733C187.103 33.4027 188.024 26.9106 183.912 20.3946C177.757 24.304 174.589 32.1106 174.589 32.1106C174.207 35.2786 176.444 45.3093 176.444 45.3093L186.159 38.076Z" fill="white"/>
<path d="M176.656 162.683L171.647 162.559L173.589 154.493L178.183 154.36L176.656 162.683ZM175.263 169.669L171.231 169.939L171.647 166.311H175.813L175.263 169.669ZM168.86 163.761L162.727 164.3L164.4 155.841L170.815 155.303L168.86 163.761ZM167.613 169.669L161.064 169.805L161.345 166.581L168.299 166.457L167.613 169.669ZM156.751 164.3L151.045 163.761C151.045 163.761 152.439 157.852 153.268 156.381C154.1 154.899 155.919 153.831 159.121 154.36C158.695 156.245 156.751 164.3 156.751 164.3ZM156.056 169.141L149.371 169.005L149.787 166.176L156.335 166.457L156.056 169.141ZM142.407 169.4C142.407 169.4 138.655 169.264 139.497 165.367C140.745 157.999 145.889 159.2 145.889 159.2L142.407 169.4ZM154.381 151.416C138.801 152.36 137.824 159.728 136.712 164.705C135.6 169.669 137.409 171.815 140.195 171.815C142.979 171.815 163.155 172.488 177.072 172.488C177.487 164.705 181.52 151.685 181.52 151.685C181.52 151.685 169.972 150.472 154.381 151.416Z" fill="white"/>
<path d="M206.231 140.071C192.28 131.084 154.123 120.727 126.164 140.317C128.456 129.085 127.692 112.472 121.863 104.9C130.983 97.812 173.792 74.3586 208.253 105.877C208.76 122.727 206.231 140.071 206.231 140.071ZM205.704 154.448C205.885 156.74 203.683 161.503 202.055 157.28C193.472 140.891 167.367 143.183 167.367 143.183C167.367 143.183 166.996 140.363 167.547 134.544C176.488 133.308 195.471 138.768 202.232 143.351C208.984 147.933 205.512 152.169 205.704 154.448ZM187.372 156.516L189.18 152.495L194.325 153.696L195.573 156.785L187.372 156.516ZM186.393 162.155L187.08 159.2H197.391L197.807 162.559L186.393 162.155ZM196.549 167.793L185.699 167.524L186.113 164.165L196.965 164.568L196.549 167.793ZM203.695 95.116C193.067 88.5346 155.82 73.864 116.032 103.193C119.84 111.741 129.713 143.013 110.201 170.376C111.472 170.625 112.481 171.119 116.527 172.331C119.571 161.583 122.379 150.585 129.22 145.216C136.049 139.845 141.879 135.689 160.379 135.196C159.615 142.273 159.615 143.013 159.615 143.013C159.615 143.013 136.812 143.26 131.993 155.729C127.185 168.175 125.411 174.533 125.411 174.533L130.983 175.993C131.241 170.376 133.263 153.281 143.395 150.337C153.527 147.417 171.78 148.147 178.869 148.631C185.968 149.124 186.473 151.08 186.473 151.08C186.473 151.08 179.375 165.737 179.375 176.488C183.935 176.241 184.451 171.364 184.451 171.364L200.155 169.163L199.896 173.555L208.772 171.601C209.524 158.415 213.579 120.289 213.579 114.672C213.579 109.045 214.341 101.711 203.695 95.116Z" fill="white"/>
<path d="M105.393 183.779L98.7893 169.613C98.7893 169.613 153.392 195.056 227.463 170.781L224.161 181.184C166.872 195.629 129.096 188.989 105.393 183.779ZM220.261 197.369C175.565 208.928 141.385 202.279 111.392 198.528L106.899 189.271C106.899 189.271 166.277 203.436 222.656 186.664C222.656 186.664 221.768 193.315 220.261 197.369ZM216.656 209.805C216.656 209.805 207.963 208.344 198.964 212.108C189.967 215.869 183.676 215.299 177.072 213.556C170.479 211.815 162.076 209.805 153.079 214.409C144.091 219.037 140.789 214.713 135.981 212.692C131.185 210.657 121.288 208.647 114.999 208.928L112.887 202.863C112.887 202.863 165.973 215.58 218.757 201.997C218.757 201.997 218.163 205.176 216.656 209.805ZM110.191 168.468C110.191 168.468 103.597 169.04 103.9 160.941C101.193 161.233 101.497 160.368 101.497 160.368L102.092 155.46C102.092 155.46 106.293 150.54 106.899 147.641C102.092 146.496 95.1946 142.44 95.1946 155.168C91.6 158.92 90.1067 160.648 90.1067 160.648C90.1067 160.648 109.292 208.075 111.685 214.129C117.391 214.409 128.793 214.713 133.285 217.319C137.779 219.915 149.192 221.072 156.077 217.6C162.975 214.129 168.972 217.319 173.769 217.892C178.576 218.467 186.373 220.78 196.864 217.319C207.355 213.848 217.556 212.973 219.959 213.848C223.856 202.863 234.651 164.132 234.651 164.132C234.651 164.132 161.189 187.251 110.191 168.468Z" fill="white"/>
<path d="M220.104 242.56C219.677 242.347 209.904 237.416 196.832 241.031L196.101 241.2C192.673 241.997 185.508 243.66 178.128 240.111L177.88 239.987L177.611 239.941C174.803 239.528 167.108 239.279 158.121 241.369C158.268 241.324 157.593 241.436 157.593 241.436C148.159 242.964 139.845 242.492 132.892 240.021L132.612 239.931H132.275L131.343 239.92C127.58 239.887 118.773 239.819 111.663 242.471L112.932 245.143C119.424 242.728 127.748 242.796 131.308 242.828H132.275L131.668 242.728C139.216 245.403 148.124 245.929 158.189 244.291L158.807 244.211C167.715 242.155 175.004 242.515 177.072 242.817L176.556 242.661C185.092 246.784 193.393 244.852 196.944 244.009L197.717 243.828C209.456 240.584 218.34 245.02 218.431 245.053L220.104 242.56Z" fill="white"/>
<path d="M220.104 236.292C219.677 236.089 209.904 231.157 196.832 234.776L196.112 234.944C192.673 235.741 185.529 237.416 178.128 233.844L177.88 233.731L177.611 233.687C174.792 233.269 167.085 233.024 158.121 235.101C158.268 235.068 157.605 235.169 157.605 235.169C148.169 236.719 139.857 236.224 132.892 233.776L132.612 233.663H132.275H131.343C127.58 233.64 118.773 233.551 111.663 236.201L112.932 238.887C119.424 236.472 127.748 236.539 131.308 236.573L132.275 236.584L131.668 236.472C139.216 239.144 148.147 239.661 158.2 238.044L158.807 237.943C167.389 235.976 174.488 236.18 177.072 236.561L176.556 236.392C185.104 240.515 193.404 238.584 196.953 237.752L197.729 237.573C209.456 234.327 218.34 238.763 218.431 238.809L220.104 236.292Z" fill="white"/>
<path d="M220.104 230.033C219.677 229.821 209.904 224.903 196.832 228.519L196.112 228.676C192.673 229.484 185.529 231.157 178.128 227.587L177.88 227.463L177.611 227.428C174.792 227.013 167.085 226.765 158.121 228.844C158.268 228.809 157.605 228.912 157.605 228.912C148.169 230.451 139.857 229.979 132.892 227.508L132.612 227.407H132.275L131.343 227.396C127.58 227.373 118.773 227.283 111.663 229.945L112.932 232.631C119.424 230.215 127.748 230.293 131.308 230.315H132.275L131.668 230.215C139.216 232.876 148.147 233.405 158.2 231.788L158.807 231.676C167.389 229.709 174.488 229.912 177.072 230.293L176.556 230.137C185.104 234.269 193.404 232.315 196.953 231.496L197.729 231.305C209.456 228.069 218.34 232.505 218.431 232.561L220.104 230.033Z" fill="white"/>
<path d="M220.104 223.779C219.677 223.565 209.904 218.633 196.832 222.251L196.112 222.408C192.673 223.217 185.529 224.891 178.128 221.317L177.88 221.205L177.611 221.172C174.792 220.747 167.085 220.511 158.121 222.577C158.268 222.543 157.605 222.655 157.605 222.655C148.169 224.183 139.857 223.711 132.892 221.251L132.612 221.149H132.275H131.343C127.58 221.104 118.773 221.037 111.663 223.677L112.932 226.361C119.424 223.959 127.748 224.025 131.308 224.06H132.275L131.668 223.959C139.216 226.632 148.147 227.147 158.2 225.519L158.807 225.42C167.389 223.44 174.488 223.667 177.072 224.036L176.556 223.891C185.104 228.001 193.404 226.059 196.953 225.239L197.729 225.06C209.456 221.812 218.34 226.249 218.431 226.283L220.104 223.779Z" fill="white"/>
</svg>
