<svg xmlns="http://www.w3.org/2000/svg" width="270" height="60" viewBox="0 0 202.5 45"><path d="M.703 27.737v-.547c.613 0 1.016-.066 1.203-.203.188-.144.282-.367.282-.672v-7.719c0-.332-.11-.57-.329-.718-.21-.157-.574-.258-1.093-.313v-.531h4.687c1.508 0 2.805.469 3.89 1.406 1.095.938 1.641 2.278 1.641 4.016 0 1.625-.562 2.914-1.687 3.86-1.125.948-2.512 1.421-4.156 1.421Zm3.078-10.062v8.218c0 .461.13.778.39.953.27.18.68.266 1.235.266 1.219 0 2.145-.398 2.782-1.203.632-.8.953-1.957.953-3.469 0-1.414-.375-2.566-1.125-3.453-.75-.894-1.735-1.344-2.954-1.344-.53 0-.96.012-1.28.032ZM21.107 27.737h-8.875v-.547c.664-.05 1.086-.133 1.265-.25.176-.125.266-.344.266-.656v-7.688c0-.351-.137-.601-.406-.75-.274-.144-.649-.238-1.125-.28v-.532h8.28v2.578h-.562a3.04 3.04 0 0 0-.609-1.14c-.293-.376-.543-.61-.75-.704-.21-.093-.727-.14-1.547-.14h-1.687v4.25h1.218c.563 0 .97-.125 1.22-.375.257-.258.437-.72.53-1.375h.563v4.187h-.563c-.023-.25-.09-.539-.203-.875-.117-.344-.28-.582-.5-.719-.21-.144-.558-.218-1.047-.218h-1.218v3.218c0 .606.097.993.297 1.157.195.156.707.234 1.53.234h.657c.695 0 1.172-.05 1.422-.156.25-.113.52-.414.812-.906.301-.5.536-.989.704-1.47h.53ZM31.196 27.737H22.32v-.547c.664-.05 1.086-.133 1.265-.25.176-.125.266-.344.266-.656v-7.688c0-.351-.137-.601-.406-.75-.274-.144-.649-.238-1.125-.28v-.532h8.28v2.578h-.562a3.04 3.04 0 0 0-.61-1.14c-.292-.376-.542-.61-.75-.704-.21-.093-.726-.14-1.546-.14h-1.687v4.25h1.218c.563 0 .97-.125 1.22-.375.257-.258.437-.72.53-1.375h.563v4.187h-.563c-.023-.25-.09-.539-.203-.875-.117-.344-.281-.582-.5-.719-.21-.144-.558-.218-1.047-.218h-1.218v3.218c0 .606.097.993.296 1.157.196.156.707.234 1.532.234h.656c.695 0 1.172-.05 1.422-.156.25-.113.52-.414.812-.906.301-.5.535-.989.703-1.47h.532ZM32.456 27.737v-.547c.614 0 1.016-.066 1.203-.203.188-.144.282-.367.282-.672v-7.719c0-.332-.11-.57-.328-.718-.211-.157-.575-.258-1.094-.313v-.531h4.687c1.508 0 2.805.469 3.89 1.406 1.095.938 1.642 2.278 1.642 4.016 0 1.625-.563 2.914-1.688 3.86-1.125.948-2.512 1.421-4.156 1.421Zm3.078-10.062v8.218c0 .461.13.778.391.953.27.18.68.266 1.234.266 1.22 0 2.145-.398 2.782-1.203.633-.8.953-1.957.953-3.469 0-1.414-.375-2.566-1.125-3.453-.75-.894-1.735-1.344-2.953-1.344-.532 0-.961.012-1.282.032ZM50.838 23.034v3.25c0 .355.085.586.265.687.188.106.613.18 1.281.22v.546h-4.593v-.547c.625-.05 1.02-.129 1.187-.234.176-.113.266-.336.266-.672V18.55c0-.301-.078-.524-.235-.672-.156-.145-.586-.25-1.28-.313v-.531h4.905c.989 0 1.797.246 2.422.734.625.48.938 1.118.938 1.907 0 1.03-.383 1.851-1.14 2.453-.75.605-1.696.906-2.829.906Zm0-5.39v4.734h.765c.844 0 1.473-.211 1.89-.64.415-.438.626-1.005.626-1.704 0-1.594-.742-2.39-2.219-2.39ZM62.231 28.003c-1.48 0-2.71-.524-3.687-1.578-.97-1.063-1.453-2.407-1.453-4.032 0-1.644.492-2.988 1.484-4.03.988-1.052 2.207-1.58 3.656-1.58 1.469 0 2.692.528 3.672 1.58.977 1.042 1.469 2.386 1.469 4.03 0 1.649-.496 2.996-1.485 4.047-.992 1.043-2.21 1.563-3.656 1.563Zm0-10.563c-1.055 0-1.87.45-2.453 1.344-.586.887-.875 2.09-.875 3.61 0 1.523.29 2.726.875 3.609.594.875 1.41 1.312 2.453 1.312 1.05 0 1.863-.437 2.438-1.312.582-.883.875-2.086.875-3.61 0-1.53-.293-2.738-.875-3.625-.586-.882-1.399-1.328-2.438-1.328ZM77.075 27.737h-8.36v-.547c.626-.05 1.02-.129 1.188-.234.176-.113.266-.336.266-.672v-7.656c0-.352-.141-.61-.422-.766a2.39 2.39 0 0 0-1.031-.297v-.531h4.515v.531c-.637.055-1.043.149-1.219.281-.168.137-.25.368-.25.688v7.203c0 .637.086 1.031.266 1.188.188.148.68.218 1.484.218.54 0 .961-.03 1.266-.093.313-.063.531-.141.656-.235.125-.101.336-.398.64-.89.302-.489.536-.946.704-1.375h.531ZM86.41 27.737h-8.36v-.547c.625-.05 1.02-.129 1.187-.234.176-.113.266-.336.266-.672v-7.656c0-.352-.14-.61-.422-.766a2.39 2.39 0 0 0-1.031-.297v-.531h4.515v.531c-.636.055-1.043.149-1.218.281-.168.137-.25.368-.25.688v7.203c0 .637.086 1.031.265 1.188.188.148.68.218 1.485.218.539 0 .96-.03 1.265-.093.313-.063.532-.141.657-.235.125-.101.335-.398.64-.89.301-.489.535-.946.703-1.375h.532ZM91.08 27.737v-.547c.614 0 1.016-.066 1.204-.203.187-.144.28-.367.28-.672v-7.719c0-.332-.108-.57-.327-.718-.211-.157-.574-.258-1.094-.313v-.531h4.688c1.507 0 2.804.469 3.89 1.406 1.094.938 1.64 2.278 1.64 4.016 0 1.625-.562 2.914-1.687 3.86-1.125.948-2.511 1.421-4.156 1.421Zm3.079-10.062v8.218c0 .461.129.778.39.953.27.18.68.266 1.235.266 1.218 0 2.144-.398 2.78-1.203.634-.8.954-1.957.954-3.469 0-1.414-.375-2.566-1.125-3.453-.75-.894-1.734-1.344-2.953-1.344-.531 0-.961.012-1.281.032ZM111.484 27.737h-8.875v-.547c.664-.05 1.086-.133 1.266-.25.175-.125.265-.344.265-.656v-7.688c0-.351-.136-.601-.406-.75-.273-.144-.648-.238-1.125-.28v-.532h8.281v2.578h-.562a3.04 3.04 0 0 0-.61-1.14c-.293-.376-.543-.61-.75-.704-.21-.093-.726-.14-1.546-.14h-1.688v4.25h1.219c.562 0 .969-.125 1.219-.375.257-.258.437-.72.53-1.375h.563v4.187h-.562c-.024-.25-.09-.539-.203-.875-.117-.344-.282-.582-.5-.719-.211-.144-.559-.218-1.047-.218h-1.219v3.218c0 .606.098.993.297 1.157.195.156.707.234 1.531.234h.656c.696 0 1.172-.05 1.422-.156.25-.113.52-.414.813-.906.3-.5.535-.989.703-1.47h.531ZM115.823 23.034v3.25c0 .355.086.586.266.687.187.106.613.18 1.28.22v.546h-4.593v-.547c.625-.05 1.02-.129 1.188-.234.175-.113.265-.336.265-.672V18.55c0-.301-.078-.524-.234-.672-.156-.145-.586-.25-1.281-.313v-.531h4.906c.988 0 1.797.246 2.422.734.625.48.937 1.118.937 1.907 0 1.03-.383 1.851-1.14 2.453-.75.605-1.696.906-2.829.906Zm0-5.39v4.734h.766c.843 0 1.472-.211 1.89-.64.414-.438.625-1.005.625-1.704 0-1.594-.742-2.39-2.219-2.39ZM126.947 27.737v-.547c.926-.05 1.39-.191 1.39-.422a.941.941 0 0 0-.062-.328l-.906-2.422h-3.75c-.493 1.282-.735 2.121-.735 2.516 0 .367.516.586 1.547.656v.547h-4.047v-.547c.414-.031.75-.125 1-.281.25-.164.438-.367.563-.61.133-.238.601-1.394 1.406-3.468l2.312-5.953h.61l3.562 9.234c.258.668.786 1.027 1.578 1.078v.547Zm-1.453-8.531-1.594 4.156h3.203ZM139.346 27.737a60.494 60.494 0 0 0-3.422-4.86h-1.078v3.407c0 .355.082.586.25.687.176.094.586.168 1.234.22v.546h-4.53v-.547c.624-.05 1.019-.129 1.187-.234.175-.113.265-.336.265-.672v-7.75c0-.32-.093-.55-.28-.688-.18-.132-.571-.226-1.173-.28v-.532h4.953c1.032 0 1.848.227 2.453.672.602.437.907 1.062.907 1.875 0 1.418-.871 2.383-2.61 2.89.364.45 1.07 1.399 2.125 2.844.551.742.899 1.172 1.047 1.297.145.117.313.234.5.36.196.117.551.187 1.063.218v.547Zm-4.5-10.094v4.594h1c.719 0 1.3-.226 1.75-.687.445-.47.672-1.067.672-1.797 0-.664-.195-1.18-.578-1.547-.375-.375-.89-.563-1.547-.563ZM150.528 19.94a4.88 4.88 0 0 0-.61-1.297c-.292-.457-.546-.742-.765-.86-.21-.112-.715-.17-1.515-.17h-.453v8.562c0 .28.085.507.265.671.188.157.676.274 1.469.344v.547h-5.063v-.547c.739-.05 1.207-.133 1.407-.25.207-.113.312-.344.312-.687v-8.64h-.437c-.73 0-1.203.038-1.422.108-.211.075-.469.34-.781.797-.313.461-.54.934-.672 1.422h-.547v-2.906h9.328v2.906ZM160.08 27.737v-.547c.52-.039.86-.078 1.016-.11a.806.806 0 0 0 .454-.28.862.862 0 0 0 .203-.579v-7.78h-.14l-3.642 9.124h-.375l-3.484-9.312h-.094v6.39c0 .657.051 1.184.157 1.578.101.387.363.641.78.766.427.125.727.195.907.203v.547h-4.328v-.547c.77-.062 1.254-.238 1.453-.531.207-.29.313-.938.313-1.938v-5.468c0-1.063-.563-1.625-1.688-1.688v-.531h3.64l3.063 8.031 2.625-6.719c.164-.445.285-.882.36-1.312h3.484v.531c-.605.055-1 .14-1.188.266-.18.125-.265.351-.265.672v7.718c0 .325.098.555.297.688.207.137.597.23 1.172.281v.547ZM175.028 27.737h-8.875v-.547c.664-.05 1.086-.133 1.266-.25.175-.125.265-.344.265-.656v-7.688c0-.351-.136-.601-.406-.75-.273-.144-.648-.238-1.125-.28v-.532h8.281v2.578h-.562a3.04 3.04 0 0 0-.61-1.14c-.293-.376-.543-.61-.75-.704-.21-.093-.726-.14-1.546-.14h-1.688v4.25h1.219c.562 0 .969-.125 1.219-.375.257-.258.437-.72.53-1.375h.563v4.187h-.562c-.024-.25-.09-.539-.203-.875-.118-.344-.282-.582-.5-.719-.211-.144-.559-.218-1.047-.218h-1.219v3.218c0 .606.098.993.297 1.157.195.156.707.234 1.531.234h.656c.696 0 1.172-.05 1.422-.156.25-.113.52-.414.813-.906.3-.5.535-.989.703-1.47h.531ZM187.304 17.565c-.73.094-1.203.258-1.421.485-.211.23-.313.882-.313 1.953v7.843h-.656l-6.485-8.765v5.515c0 .668.04 1.157.125 1.47.082.304.176.51.282.624.113.106.332.211.656.313.332.105.617.168.86.187v.547h-4.407v-.547c.594-.082 1.035-.219 1.328-.406.29-.188.438-.883.438-2.094V19.41c0-1.04-.649-1.656-1.938-1.844v-.531h3.047l6.031 8.156v-5.094c0-1.144-.148-1.828-.437-2.046-.281-.227-.766-.391-1.453-.485v-.531h4.343ZM196.362 19.94a4.88 4.88 0 0 0-.61-1.297c-.292-.457-.546-.742-.765-.86-.21-.112-.715-.17-1.515-.17h-.454v8.562c0 .28.086.507.266.671.188.157.676.274 1.469.344v.547h-5.063v-.547c.739-.05 1.207-.133 1.407-.25.207-.113.312-.344.312-.687v-8.64h-.437c-.73 0-1.204.038-1.422.108-.211.075-.47.34-.782.797-.312.461-.539.934-.671 1.422h-.547v-2.906h9.328v2.906Zm0 0"/></svg>