<svg width="541" height="100" viewBox="0 0 541 100" fill="none" xmlns="http://www.w3.org/2000/svg">
<g clip-path="url(#clip0_3016_11)">
<path d="M83.333 0H16.667C7.46 0 0 7.461 0 16.667V83.326C0 92.532 7.461 99.993 16.66 99.993H83.326C92.532 99.993 100 92.539 100 83.333V16.667C100 7.46 92.539 0 83.333 0ZM22.486 81.56L14.871 74.59C14.6164 74.3531 14.4658 74.0251 14.4521 73.6776C14.4384 73.33 14.5628 72.9912 14.798 72.735L31.479 54.5C31.695 54.2657 31.818 53.9606 31.8248 53.642C31.8316 53.3234 31.7218 53.0133 31.516 52.77L15.919 34.235C15.6957 33.9686 15.5872 33.6245 15.6174 33.2782C15.6476 32.9319 15.814 32.6117 16.08 32.388L23.967 25.74C24.2335 25.5168 24.5777 25.4085 24.924 25.4389C25.2703 25.4692 25.5904 25.6358 25.814 25.902L48.71 53.136C49.135 53.642 49.12 54.382 48.673 54.873L24.333 81.493C24.0972 81.7441 23.7721 81.8925 23.4279 81.9061C23.0837 81.9198 22.748 81.7976 22.493 81.566L22.486 81.56ZM85.598 81.135C85.5981 81.3073 85.5643 81.4779 85.4984 81.6371C85.4325 81.7963 85.3358 81.9409 85.214 82.0627C85.0921 82.1844 84.9474 82.281 84.7882 82.3468C84.6289 82.4125 84.4583 82.4463 84.286 82.446H48.923C48.7507 82.4463 48.5801 82.4125 48.4208 82.3468C48.2616 82.281 48.1169 82.1844 47.995 82.0627C47.8732 81.9409 47.7765 81.7963 47.7106 81.6371C47.6447 81.4779 47.6109 81.3073 47.611 81.135V71.416C47.6107 71.2436 47.6445 71.0729 47.7103 70.9136C47.7762 70.7543 47.8728 70.6096 47.9947 70.4877C48.1166 70.3658 48.2613 70.2692 48.4206 70.2033C48.5799 70.1375 48.7506 70.1037 48.923 70.104H84.286C84.4584 70.1037 84.6291 70.1375 84.7884 70.2033C84.9477 70.2692 85.0924 70.3658 85.2143 70.4877C85.3362 70.6096 85.4328 70.7543 85.4987 70.9136C85.5645 71.0729 85.5983 71.2436 85.598 71.416V81.135Z" fill="#4951F5"/>
</g>
<g clip-path="url(#clip1_3016_11)">
<path d="M158.592 69.197L164.333 76.0909C162.206 78.7424 159.548 80.7576 156.572 81.9242C153.382 83.303 149.768 83.9394 145.94 83.9394C140.731 83.9394 136.372 82.8788 132.439 80.7576C128.687 78.7741 125.586 75.7548 123.508 72.0606C121.382 68.3485 120.319 64.1061 120.319 59.3333C120.319 54.6667 121.382 50.5303 123.508 46.8182C125.422 43.1061 128.292 40.1364 132.013 38.0151C135.522 35.8939 139.562 34.8333 144.133 34.8333C148.173 34.8333 152.213 35.8939 155.828 37.803C159.336 39.7121 162.206 42.6818 164.333 46.1818C166.353 49.7879 167.309 54.0303 167.309 58.9091L132.12 65.9091C133.183 68.5606 134.99 70.6818 137.435 72.2727C139.774 73.5455 142.751 74.3939 146.047 74.3939C151.043 74.3939 155.19 72.5909 158.592 69.0909V69.197ZM134.459 47.9848C132.013 50.6364 130.844 54.2424 130.844 58.697V58.803L156.891 53.6061C156.209 50.7664 154.569 48.2471 152.246 46.4705C149.923 44.6939 147.059 43.7681 144.133 43.8485C140.093 43.8485 136.904 45.2273 134.565 47.8788L134.459 47.9848ZM211.429 77.2576V83.9394H220.997V17.3333H211.748V41.303C210.013 39.1782 207.788 37.5042 205.263 36.4242C201.967 35.1274 198.421 34.5875 194.887 34.8445C191.354 35.1016 187.923 36.149 184.851 37.9091C181.343 39.9242 178.472 42.8939 176.559 46.3939C174.432 50.2121 173.476 54.5606 173.476 59.3333C173.476 64.2121 174.539 68.5606 176.559 72.2727C178.366 75.8788 181.343 78.9545 184.851 80.9697C187.975 82.7547 191.465 83.8065 195.057 84.0454C198.649 84.2843 202.248 83.704 205.582 82.3485C208.24 81.2879 210.366 79.4848 211.536 77.1515L211.429 77.2576ZM198.246 74.3939C195.801 74.3939 193.356 73.7576 191.23 72.5909C189.104 71.3182 187.403 69.4091 186.339 67.2879C185.094 64.8238 184.473 62.0924 184.532 59.3333C184.532 56.3636 185.064 53.7121 186.339 51.4848C187.403 49.3636 189.104 47.4545 191.23 46.1818C195.482 43.6364 200.798 43.6364 205.157 46.1818C207.283 47.4545 208.984 49.3636 210.154 51.4848C211.217 53.7121 211.961 56.3636 211.961 59.3333C211.961 62.4091 211.323 65.0606 210.154 67.2879C209.029 69.484 207.304 71.3172 205.177 72.5749C203.051 73.8326 200.611 74.4634 198.14 74.3939H198.246ZM274.154 34.8333V83.9394H264.586V77.2576C262.693 79.3888 260.369 81.0957 257.767 82.2657C255.165 83.4357 252.344 84.0423 249.489 84.0454C243.217 84.0454 240.028 82.2424 236.519 78.7424C233.011 75.1364 231.204 69.8333 231.204 62.8333V34.9394H240.665V61.3485C240.665 65.5909 241.303 68.7727 243.111 70.8939C245.024 73.0152 247.682 74.1818 251.19 74.1818C255.018 74.1818 258.101 72.9091 260.333 70.4697C262.672 67.9242 264.586 65.9091 264.586 59.6515V34.9394H274.154V34.8333ZM294.991 80.7576C291.325 78.7324 288.304 75.7184 286.274 72.0606C284.147 68.1364 283.084 63.6818 283.084 59.3333C283.084 54.4545 284.147 50.3182 286.274 46.6061C288.294 42.8939 291.27 39.8182 294.885 37.803C298.606 35.6818 302.859 34.6212 307.643 34.6212C312.002 34.6212 315.935 35.6818 319.337 37.5909C322.527 39.3939 325.291 42.3636 326.779 45.8636L318.699 50.8485C317.636 48.7273 315.935 47.1364 313.915 45.8636C311.895 44.803 309.663 44.1667 307.536 44.2727C303.496 44.2727 300.307 45.5455 297.649 48.303C295.098 51.0606 293.822 54.6667 293.822 59.3333C293.822 63.8939 295.098 67.5 297.649 70.2576C298.896 71.5884 300.414 72.6369 302.101 73.3322C303.788 74.0275 305.606 74.3534 307.43 74.2879C309.73 74.3175 311.995 73.7208 313.981 72.5622C315.966 71.4035 317.598 69.7267 318.699 67.7121L326.885 72.697C325.184 76.197 322.633 79.0606 319.231 81.0758C315.674 83.1027 311.632 84.129 307.536 84.0454C302.859 84.0454 298.712 82.9848 294.991 80.8636V80.7576ZM410.979 72.803C409.263 74.1714 407.115 74.8857 404.919 74.8182C402.793 74.8182 401.305 74.1818 400.135 72.9091C399.072 71.7424 398.009 69.4091 398.009 67.6061V44.3788H409.916V34.8333H398.009V25.2879H388.441V34.8333H381.318V44.3788H388.441V68.0303C388.441 73.3333 389.823 77.3636 392.693 80.1212C395.457 82.8788 398.54 84.1515 403.643 84.1515C405.557 84.1515 407.471 83.8333 409.384 83.303C411.085 82.8788 412.574 82.0303 413.956 80.8636L410.979 72.9091V72.803ZM423.843 34.9394H433.199V83.9394H423.843V34.9394ZM491.671 34.9394L471.79 83.9394H460.734L441.491 34.9394H452.122L466.368 71.6364L481.252 34.9394H491.564H491.671ZM531.219 69.303L536.96 76.197C534.94 78.8485 532.282 80.8636 529.199 82.0303C525.79 83.4081 522.14 84.0932 518.462 84.0454C513.359 84.0454 508.893 82.9848 505.066 80.8636C501.309 78.6299 498.179 75.4847 495.967 71.7204C493.755 67.9562 492.533 63.6951 492.415 59.3333C492.511 55.055 493.656 50.8653 495.75 47.1305C497.845 43.3957 500.824 40.2296 504.428 37.9091C508.043 35.7879 512.189 34.7273 516.761 34.7273C520.801 34.7273 524.947 35.7879 528.455 37.697C532.07 39.7121 535.046 42.5758 536.96 46.1818C539.086 49.7879 540.15 54.0303 540.15 58.9091L504.641 65.9091C505.704 68.5606 507.511 70.7879 509.957 72.2727C512.402 73.6515 515.272 74.3939 518.674 74.3939C523.671 74.3939 527.923 72.697 531.219 69.0909V69.303ZM507.086 47.8788C504.641 50.5303 503.365 54.2424 503.365 58.697V58.803L529.518 53.5C528.819 50.67 527.174 48.1618 524.855 46.3884C522.537 44.6149 519.682 43.6817 516.761 43.7424C512.721 43.7424 509.531 45.1212 506.98 47.8788H507.086ZM433.305 15.8485H423.737V25.3939H433.305V15.8485ZM369.836 38.4394C365.88 35.7164 361.134 34.374 356.334 34.6212C346.341 34.6212 339.749 37.2727 336.666 42.4697L345.915 46.8182C347.297 44.1667 350.487 43 355.909 43C359.311 43 361.756 43.4242 363.138 44.2727C364.627 45.0151 365.371 46.0758 365.69 47.2424C366.009 48.5151 365.69 50.4242 365.69 53.0758H363.138C343.258 53.0758 333.264 58.803 333.264 70.0455C333.264 74.1818 334.965 77.5758 338.261 80.2273C341.45 82.7727 345.703 84.0454 350.593 84.0454C356.759 84.0454 361.969 82.5606 366.221 79.5909V83.8333L375.47 84.0454V52.8636C375.47 45.7576 373.557 40.9848 369.942 38.4394H369.836ZM366.221 69.7273C364.747 71.5642 362.851 73.0194 360.693 73.9697C358.297 75.0874 355.684 75.6667 353.038 75.6667C350.696 75.8189 348.363 75.2645 346.341 74.0758C345.637 73.5739 345.072 72.9018 344.7 72.1226C344.329 71.3434 344.161 70.4826 344.214 69.6212C344.214 63.8939 349.955 61.1364 361.437 61.1364H366.221V69.7273Z" fill="#4951F5"/>
</g>
<defs>
<clipPath id="clip0_3016_11">
<rect width="100" height="100" fill="white"/>
</clipPath>
<clipPath id="clip1_3016_11">
<rect width="421" height="70" fill="white" transform="translate(120 15)"/>
</clipPath>
</defs>
</svg>
