<svg xmlns="http://www.w3.org/2000/svg" width="385.611" height="259.329" viewBox="0 0 128.25 86.25"><path fill="#3d9e47" d="m14.552 39.947 14.825-6.14 1.148 17.507zm0 0"/><path fill="#237875" d="m46.517 39.138 13.117 4.992-10.898 13.098zm0 0"/><path fill="#008a82" d="m30.556 51.287-13.793 6.996-2.21-18.336zm0 0"/><path fill="#055770" d="m60.564 54.185-11.828 3.043-15.64 6.82 12.882 1.133zm0 0"/><path fill="#008a85" d="m30.556 51.287 18.18 5.941-2.219-18.09zm0 0"/><path fill="#3d9e47" d="m46.517 39.138-17.14-5.332 11.695-13.304zm0 0"/><path fill="#73ab38" d="m20.33 21.123 9.047 12.683 11.695-13.304-20.734.62zm0 0"/><path fill="#61a12e" d="m7.908 27.49 6.644 12.457-6.902 5.078zm0 0"/><path fill="#75b828" d="m7.908 27.49 6.644 12.457 5.778-18.828zm0 0"/><path fill="#99c554" d="m17.154 13.771 3.176 7.352L7.908 27.49zm0 0"/><path fill="#389c35" d="M29.377 33.806 20.33 21.123l-5.778 18.824zm0 0"/><path fill="#007d2e" d="m7.65 45.021 6.902-5.074 2.215 18.336zm0 0"/><path fill="#91bf3f" d="M20.33 21.123 30.767 7.65l10.305 12.852zm0 0"/><path fill="#75b828" d="M20.33 21.123 30.767 7.65 17.15 13.783zm0 0"/><path fill="#009438" d="m30.529 51.314-1.152-17.508 17.14 5.332zm0 0"/><path fill="#3d758c" d="m48.736 57.228-18.18-5.941 2.54 12.761zm0 0"/><path fill="#3d758c" d="m16.767 58.287 16.328 5.761 12.883 1.133-18.863.102zm0 0"/><path fill="#33918c" d="m46.517 39.138 13.117 4.992-1.254-17.34zm0 0"/><path fill="#005e54" d="m58.38 26.79 1.403-8.183 5.879 17.29zm0 0"/><path fill="#4fa34f" d="M49.123 12.587 44.576 7.97l-13.809-.32zm0 0"/><path fill="#75b828" d="M41.072 20.502 30.767 7.65l18.356 4.938zm0 0"/><path fill="#009438" d="m41.072 20.502 5.445 18.636L58.38 26.791zm0 0"/><path fill="#61a12e" d="m41.072 20.502 8.05-7.914L58.38 26.79zm0 0"/><path fill="#008c35" d="m44.576 7.97 4.547 4.617 9.257 14.204 1.399-8.188zm0 0"/><path fill="#2e6e85" d="m16.767 58.287 13.79-7 2.538 12.761zm0 0"/><path fill="#266b85" d="m48.752 57.224 11.812-3.039-.93-10.055zm0 0"/><path fill="#007a35" d="m59.634 44.13 6.028-8.242-7.282-9.097zm0 0"/><path fill="#2b637d" d="m65.662 35.896-5.098 18.29-.93-10.056zm0 0"/><g fill="#3a3a3a"><path d="M79.025 47.642v3.79c-.926.605-1.934.948-3.238.948-2.473 0-4.606-1.8-4.606-4.48 0-2.7 2.168-4.488 4.606-4.488 1.281 0 2.195.355 3.082.898l-.676 1.188c-.7-.453-1.527-.723-2.332-.723-1.98 0-3.094 1.398-3.094 3.125 0 1.852 1.363 3.164 3.082 3.164.746 0 1.242-.129 1.754-.414v-1.707h-2.027v-1.3zM85.369 52.24l-1.895-3.13c-.156.013-.297.013-.46.013-.286 0-.583-.012-.868-.024v3.14h-1.48v-8.6a17.86 17.86 0 0 1 2.285-.145c2.465 0 3.554 1.199 3.554 2.738 0 1.125-.613 2.04-1.69 2.512l2.272 3.496zm-2.227-7.418c-.355 0-.699.012-.996.07v2.961c.274.04.57.047.852.047 1.293 0 1.945-.602 1.945-1.598 0-.875-.664-1.48-1.8-1.48M88.15 52.24v-8.688h5.297v1.352H89.63v2.277h3.45v1.301h-3.45v2.406h3.817v1.352zM95.185 52.24v-8.688h5.293v1.352h-3.812v2.277h3.445v1.301h-3.445v2.406h3.812v1.352zM109.138 52.404l-5.441-5.734v5.57h-1.48v-8.805l.238-.047 5.367 5.653v-5.489h1.48v8.817zM75.869 65.423c-2.75 0-4.68-1.894-4.68-4.48 0-2.57 1.953-4.488 4.68-4.488a5.44 5.44 0 0 1 2.797.793l-.512 1.254c-.688-.387-1.54-.66-2.309-.66-1.91 0-3.07 1.265-3.07 3.101 0 1.828 1.195 3.094 3.105 3.094.77 0 1.672-.274 2.372-.688l.449 1.258a5.435 5.435 0 0 1-2.832.816M79.998 65.283v-8.688h1.48v7.336h3.817v1.352zM86.51 56.595h1.484v8.688h-1.485zM97.173 65.283l-.12-5.203-2.735 4.148h-.18l-2.758-4.16-.093 5.215h-1.461l.367-8.793.227-.024 3.851 5.758 3.754-5.758.238.024.368 8.793zM106.064 65.283l-.84-1.992h-3.437l-.84 1.992H99.42l4.003-8.805h.215l3.992 8.805zm-2.559-6.067-1.23 2.903h2.465zM111.416 57.947v7.336h-1.48v-7.336h-2.763v-1.352h6.993v1.352zM115.404 65.283v-8.688h5.297v1.352h-3.813v2.273h3.446v1.305h-3.446v2.406h3.813v1.352zM72.943 71.017v2.535h3.355v1.313h-3.355v3.484h-1.48v-8.683h5.296v1.351zM81.388 78.494c-2.168 0-3.449-1.223-3.449-3.473v-5.355h1.48v5.25c0 1.492.739 2.226 1.993 2.226 1.246 0 1.988-.746 1.988-2.226v-5.25h1.484v5.355c0 2.215-1.363 3.473-3.496 3.473M93.587 78.517 88.15 72.78v5.57h-1.48v-8.8l.234-.051 5.367 5.652v-5.484h1.48v8.812zM98.142 78.42c-.945 0-1.62-.06-2.5-.141v-8.531a20.66 20.66 0 0 1 2.418-.141c3.438 0 5.13 1.977 5.13 4.324 0 2.442-1.61 4.489-5.048 4.489m.098-7.512c-.43 0-.809.023-1.117.07v6.059c.367.058.675.07 1.246.07 2.226 0 3.234-1.34 3.234-3.176 0-1.8-1.16-3.023-3.363-3.023"/></g></svg>