<?xml version="1.0" encoding="utf-8"?>
<!-- Generator: Adobe Illustrator 25.2.0, SVG Export Plug-In . SVG Version: 6.00 Build 0)  -->
<svg version="1.1" id="Layer_1" xmlns="http://www.w3.org/2000/svg" xmlns:xlink="http://www.w3.org/1999/xlink" x="0px" y="0px"
	 viewBox="0 0 220 220" style="enable-background:new 0 0 220 220;" xml:space="preserve">
<style type="text/css">
	.st0{fill:#00592E;}
	.st1{fill:#FFFFFF;}
</style>
<g>
	<polygon class="st0" points="110,0 205.3,55 205.3,165 110,220 14.7,165 14.7,55 	"/>
	<polygon class="st1" points="110,5.6 200.2,57.7 200.2,161.8 110,213.9 19.8,161.8 19.8,57.7 	"/>
	<path class="st0" d="M85.7,36.3l15.1,7.6L51.7,69.2H24.3L85.7,36.3z M89.3,33.8l68,35.4h40.1l-87-47.7L89.3,33.8z M33.3,159.7
		l15.1,7.7V73H33.3V159.7z M173.5,167.4l13.2-7.1V73h-13.2V167.4z"/>
	<path class="st0" d="M91.9,76.2c0.3,0,0.7-0.1,1.2-0.3c0.5-0.2,0.8-0.3,1-0.3c0.5,0,0.7,0.4,0.7,1.3c0,0.4-0.2,0.8-0.7,1.4
		c-0.4,0.4-0.8,0.8-1.2,1.1l3.1,1.1l5.4-5.6c0.3,0.3,0.7,0.8,1,1.4c0.3,0.6,0.5,1.1,0.5,1.3l-0.2,8.6c1,1,1.8,1.7,2.4,2.2V71.6h4.6
		l0,0h9.8v2.7c-0.7-1.2-1.6-1.8-2.7-1.8c-0.3,0-0.7,0.2-1.1,0.5c-0.4,0.3-0.7,0.7-0.9,1.1c-1-1.1-2.1-1.7-3.4-1.7
		c-1.2,0-2.2,0.5-3,1.6c-0.7,0.9-1,2-1,3.2c0,1.5,0.4,2.7,1.3,3.6c0.9,0.9,2.1,1.4,3.6,1.4c0.7,0,1.3-0.2,1.8-0.6c0.7-0.4,1-1,1-1.7
		c0-0.7-0.2-1.4-0.6-2c-0.5-0.7-1.1-1.1-1.8-1.1c-0.6,0-1.1,0.2-1.5,0.6c-0.4,0.4-0.6,0.9-0.6,1.5c0,0.3,0,0.5,0.1,0.7
		c-0.8-0.3-1.1-0.9-1.1-1.8c0-0.7,0.3-1.3,0.8-1.8c0.5-0.5,1.1-0.7,1.9-0.7c0.7,0,1.3,0.2,1.7,0.5c0.4,0.3,0.8,0.8,1.2,1.5
		c0.2,0.3,0.3,0.5,0.3,0.6l-0.1,0.6l1.5-0.6c-0.1-0.8-0.2-1.2-0.2-1.3c0-0.8,0.3-1.2,1-1.2c0.4,0,0.9,0.2,1.2,0.6
		c0.4,0.4,0.6,0.8,0.6,1.2v3.3v2.7c-0.4-0.2-0.8-0.4-1.2-0.4c-0.8,0-1.2,0.4-1.4,1.1c-0.6-0.6-1.1-1-1.7-1.3
		c-0.6-0.3-1.3-0.4-2.3-0.4c-1.1,0-2.1,0.4-2.9,1.2c-0.8,0.8-1.3,1.7-1.3,2.8c0,1.3,0.5,2.2,1.5,2.9c0.8,0.5,1.9,0.8,3.1,0.8
		c1.8,0,2.7-0.9,2.7-2.7c0-0.9-0.6-1.3-1.7-1.3c-1.2,0-1.9,0.4-2.1,1.1c0,0.1-0.1,0.2-0.1,0.4c-0.6-0.3-0.9-0.6-0.9-1
		c0-0.5,0.2-1,0.7-1.3c0.5-0.3,1.1-0.5,1.7-0.5c1.1,0,2.1,0.6,2.9,1.9c0.2,0.3,0.3,0.6,0.4,0.9l2-0.6c-0.4-0.5-0.6-0.7-0.6-0.8
		c0-0.5,0.3-0.8,0.8-0.8c0.1,0,0.3,0.1,0.4,0.2v0.8l0.5,0.5c0,0.2,0.1,0.5,0.1,0.7c0.4,0.3,0.9,0.6,1.5,0.9l0.1,0.1V71.6h3.9v14.9
		l2.3,2.3V71.5h5l-2.3-2.3H128c-0.8-2.7-1.9-4.7-3.3-5.8c-1.1-0.9-2-1.4-2.8-1.7c-1.7-0.5-3.1-0.8-4.2-0.8c-1.2,0-2.5,0.3-3.8,0.9
		c-1.7,0.7-2.5,1.6-2.5,2.6c0,1,0.5,1.8,1.4,2.4c0.8,0.6,1.7,0.9,2.6,0.9l2.7,0.1c1.6,0.1,2.4,0.4,2.4,0.9c0,0.1-0.1,0.3-0.4,0.6
		h-14.8c-0.4-0.3-0.7-0.7-0.7-1.4l-0.2-0.3l-1.5-1.1c0,2.8,0.1,5.2,0.4,7.4c-0.6-1.3-1.4-2.3-2.4-3.1c-1.1-0.9-2.3-1.3-3.7-1.3
		c-2.7,0-4.8,1.3-6.4,3.9c-0.2,0.4-0.3,0.7-0.3,1c0,0.4,0.2,0.7,0.5,1.1C91.2,76,91.6,76.2,91.9,76.2z M120.6,66
		c-0.7-0.5-1.8-0.7-3.3-0.8c-1.1-0.1-2.2-0.1-3.3-0.2c-0.8-0.1-1.1-0.2-1.1-0.4c0-0.8,1.4-1.2,4.2-1.2c3.4,0,5.9,0.9,7.3,2.8
		c0.8,1,1.2,1.8,1.3,2.3l0.2,0.8H124l0,0h-1.9c0-0.1,0-0.3,0-0.4C122.1,67.5,121.6,66.6,120.6,66z M97.6,71.9c0.8,0,1.4,0.3,2,0.8
		l-3,3c-0.1-0.5-0.3-1-0.7-1.5c-0.4-0.5-0.9-0.7-1.4-0.8C95.1,72.4,96.2,71.9,97.6,71.9z M61.2,122.8c0.6,0.7,1,1.2,1.2,1.7
		c0.1,0.2,0.3,0.9,0.7,1.9l1.2,1.2v-13.5h0.1c1,0,1.9,0.3,2.7,1c0.8,0.7,1.3,1.5,1.4,2.4c-0.5-0.3-0.9-0.5-1.3-0.5
		c-0.3,0-0.7,0.1-1.1,0.2c-0.7,0.6-1.1,1.2-1.1,2c0,0.7,0.2,1.2,0.8,1.6c0.5,0.4,1.1,0.7,1.7,0.7c0.9,0,1.7-0.4,2.2-1.1
		c0.5-0.7,0.8-1.5,0.8-2.3c0-1.6-0.6-3.2-1.8-4.6c-1.2-1.5-2.7-2.3-4.3-2.3v-0.6h6.4c0.1,0.1,0.2,0.4,0.4,0.7
		c0.2,0.3,0.4,0.6,0.8,0.8c0.2,0.3,0.8,0.5,1.7,0.7c1.1,0.3,1.8,0.5,2.3,0.8c0.8,0.5,1.3,1.3,1.4,2.4h-0.8c-1,0-1.9,0.3-2.5,0.8
		c-0.8,0.6-1.1,1.4-1.1,2.4c0,0.2,0,0.4,0.1,0.7c0.1,0.3,0.1,0.5,0.1,0.7c0.7,1,1.6,1.6,2.8,1.6c0.8,0,1.4-0.2,2-0.7
		c0.5-0.3,0.8-0.6,0.9-0.8c0.5,0.3,1.2,0.8,2.2,1.6c0.8,0.7,1.4,2,1.8,4L84,128v-17.2h4.8l-2.3-2.3H71.2l0,0H50l2.3,2.3H62v0.7
		c-3.1,1-6.1,2.7-8.9,5.1l2.5,3.1C57.7,119.8,59.6,120.9,61.2,122.8z M81.9,110.8v10c-0.8-1-1.5-1.8-2.1-2.4c0-0.7-0.1-1.7-0.5-3.1
		c-0.3-1.3-1.6-2.8-3.8-4.5H81.9z M57.5,117.1c1.9-1.4,3.4-2.3,4.5-2.7v6.9C60.9,119.3,59.3,118,57.5,117.1z M81.9,107.7h-5
		l10.3-7.6l2.2,0.3L81.9,107.7z M87.4,118.2h8.7v2.7h-8.7V118.2z M139,125.8c-0.4-0.4-0.6-0.9-0.6-1.5c0-0.5,0.2-1,0.6-1.4
		c0.4-0.4,0.8-0.6,1.4-0.6c0.6,0,1.1,0.2,1.5,0.6c0.4,0.4,0.7,0.9,0.7,1.5c0,0.5-0.2,1-0.6,1.4c-0.4,0.4-0.8,0.6-1.4,0.6
		C139.9,126.4,139.4,126.2,139,125.8z M160.8,111.2v-0.6h9.2l-2.3-2.3h-18.1l0,0h-17.1c-0.4-0.5-0.7-1.2-0.8-2.3l-1.3-1
		c0,1.9,0,3.5,0.1,5c-0.5-0.8-1.2-1.3-2.1-1.6l-0.1-0.1H128c-0.3-0.1-0.7-0.1-1.1-0.1c-0.3,0-0.8,0-1.5,0.1h-11.6l0,0H94.8
		c1.4,1.4,2.3,2.1,2.5,2.3c0.5,0.7,1,1.1,1.5,1.3c0.2,0.1,0.9,0.1,1.9,0.2c0.9,0,1.5,0.4,2,0.9c0.3,0.5,0.6,1.2,0.7,2.3
		c-1.4,2-2.3,3-2.6,3c-0.2,0-0.5-0.3-0.8-0.8c-0.3-0.5-0.5-1.1-0.5-1.7l-1.7,1.7c0.7,1.2,1,1.9,1.1,2c0.6,0.9,1.1,1.4,1.6,1.6
		c0.2,0.2,0.7,0.3,1.5,0.3c0.3,0,0.5,0,0.7,0c0.4-0.1,0.9-0.5,1.4-1.2c0.1-0.1,0.4-0.6,1.1-1.6c1-1.6,1.9-2.4,2.4-2.4
		c0.3,0,0.7,0.2,1.2,0.6c0.5,0.4,0.7,0.7,0.7,1v7.6l2.3,2.6v-17.3h2l0,0h4.8c0.1,0,0.3,0.1,0.6,0.4c0.1,0.1,0.3,0.2,0.5,0.4
		c-1.2,0.5-2,0.9-2.5,1.2c-0.9,0.6-1.3,1.4-1.3,2.3c0,0.7,0.2,1.2,0.7,1.6c0.4,0.4,1,0.6,1.6,0.6c0.8,0,1.5-0.3,2.2-1
		c0.7-0.7,1.1-1.4,1.2-2.1c0.1,0,0.2,0,0.4,0c0.7,0,1.3,0.2,1.9,0.6c0.5,0.4,0.8,0.9,0.8,1.5c0,0.7-0.6,1.4-1.8,2
		c-1.1,0.5-2.1,0.8-3.1,0.8c-1.7,0-3.6-0.7-5.6-2.1l2.3,5.6c2.4,0.4,4.8,1.4,7.3,2.9c2.5,1.5,4.6,3.5,6.6,5.8l-1-3.8
		c-1.1-1.2-1.8-1.9-2-2.1c-1.2-1.3-2.9-2.5-4.8-3.7c1.4-0.7,2.4-1.3,2.9-1.8c0.9-0.9,1.4-1.9,1.4-3.1c0-1.1-0.3-2.1-0.9-2.9
		c-0.6-0.9-1.4-1.5-2.4-1.9c-0.7-0.3-1.2-0.5-1.5-0.5c-0.2-0.3-0.3-0.5-0.4-0.6h5.8l0,0h0.4c0.8,0,1.5,0.3,2.1,0.8
		c0.5,0.6,0.8,1.2,0.8,2v12.4l2.2,2.4v-17.7h1.9c0.1,0.1,0.3,0.3,0.4,0.4c0.7,0.6,1.7,1,2.9,1.2c1.2,0.2,2,0.5,2.5,0.9
		c-1.9,1.5-3.5,2.9-4.8,4.2l2.5,3.1c1.3,0.1,2.3,0.2,2.9,0.4c0.8,0.3,1.7,0.9,2.5,1.7c0.9,0.8,1.5,1.6,1.9,2.4
		c0.4,0.9,0.7,1.4,0.7,1.5c0.3,0.4,0.7,0.8,1.3,1.2v-17.2h1.6l0,0h9.7v0.7c-3.1,1-6.1,2.7-8.9,5.1l2.5,3.1c2.1,0.2,4,1.3,5.5,3.2
		c0.6,0.7,1,1.2,1.2,1.7c0.1,0.2,0.3,0.9,0.7,1.9l1.2,1.2v-13.5h0.1c1,0,1.9,0.3,2.7,1c0.8,0.7,1.3,1.5,1.4,2.4
		c-0.5-0.3-0.9-0.5-1.3-0.5c-0.3,0-0.7,0.1-1.1,0.2c-0.7,0.6-1.1,1.2-1.1,2c0,0.7,0.2,1.2,0.8,1.6c0.5,0.4,1.1,0.7,1.7,0.7
		c0.9,0,1.7-0.4,2.2-1.1c0.5-0.7,0.8-1.5,0.8-2.3c0-1.6-0.6-3.2-1.8-4.6C163.9,112,162.5,111.2,160.8,111.2z M109.5,115.2
		c-1.1-1.5-2.1-2.2-2.8-2.2c-0.2,0-0.8,0.3-1.8,1c0.1-1.2-0.4-2.3-1.6-3.3h6.2V115.2z M145,121.8c-1.3-1.8-3-3.1-5-3.9
		c1.6-1.7,2.9-3,3.7-3.8c-1.5-1.7-2.6-2.9-3.3-3.5h4.6V121.8z M158.6,121.2c-1.2-1.9-2.7-3.2-4.5-4.1c1.9-1.4,3.4-2.3,4.5-2.7V121.2
		z M144.7,147.6c-0.2-0.1-0.4-0.3-0.5-0.7c-0.1-0.7-0.2-1-0.3-1.1c-0.2-0.3-0.8-0.8-1.6-1.5c0.1,2.3,0.2,4.8,0.4,7.4
		c-1.7-2.7-2.9-4.1-3.8-4.1c-0.1,0-0.3,0-0.5,0.1c-1.6,0.4-2.8,1.2-3.5,2.4c-0.3-0.7-0.8-1.3-1.5-1.8c-0.7-0.5-1.4-0.7-2.2-0.7h-1.8
		l0,0h-20.3l0,0h-9.9c0-1.4-0.5-2.5-1.4-3.4c-0.9-0.8-2.1-1.1-3.6-1.1c-0.1,0-0.9,0-2.6,0.1l-2.3,0.1H89h-0.1h-0.1
		c-0.5,0-0.9-0.2-1.3-0.4c-0.4-0.3-0.6-0.6-0.6-1c0-0.3,0.3-0.7,1-1.2l-1.3-0.6c-0.2-0.1-0.5,0.2-0.8,0.8c-0.3,0.6-0.5,1-0.5,1.3
		c0,1.3,0.6,2.3,1.9,3c1,0.6,2.2,0.9,3.5,0.9c0.5,0,1.3,0,2.3-0.1c1-0.1,1.8-0.1,2.3-0.1c0.4,0,0.8,0.1,1.2,0.2
		c0.5,0.2,0.8,0.4,0.8,0.8v0.2c0.1,0.3,0,0.4-0.3,0.4c0,0-0.1,0-0.3-0.1h-0.3c-0.2,0-0.4,0-0.5,0.1H85.1l0,0h-2.4
		c-0.4-0.5-0.7-1.2-0.8-2.3l-1.3-1c0,1.8,0,3.5,0.1,5c-0.5-0.9-1.3-1.4-2.3-1.6l0,0h-0.2c-0.3-0.1-0.7-0.1-1.1-0.1
		c-0.3,0-0.8,0-1.5,0.1H57c0.9,1,1.9,1.9,3,2.8c0,0,0.1,0.1,0.1,0.1c0.7,0.7,2,1.2,3.8,1.4c0.3,0.2,0.7,0.5,0.9,0.7
		c-1.9,1.6-3.4,2.9-4.5,4.1l2.1,3.1c3.5,0.1,6.2,2.1,8.1,6l1.2,1.1v-13.4H72c2.4,0,3.6,0.7,3.6,2.2l-0.2-0.1
		c-0.2-0.2-0.4-0.3-0.6-0.3l-1.5-0.9l0.8,0.7c-0.5,0-1,0.2-1.4,0.5c-0.4,0.3-0.6,0.8-0.6,1.3c0,0.6,0.2,1.2,0.6,1.6
		c0.4,0.5,1,0.7,1.6,0.7c1,0,1.7-0.3,2.3-0.9c0.5-0.6,0.8-1.4,0.8-2.3c0-0.8-0.2-1.7-0.7-2.7c-1-2-3-3.1-5.7-3.1
		c-0.6,0-1.1,0.1-1.5,0.3v10.3c-1.3-1.8-2.9-3-4.7-3.8c1.7-1.4,2.9-2.5,3.8-3.2c-1.2-1.6-2.4-3-3.8-4.2h12.5l0,0h0.4
		c0.8,0,1.5,0.3,2.1,0.8c0.5,0.6,0.8,1.2,0.8,2v12.4l2.2,2.4v-17.6h1.8l0,0h1.1h5.4v5.5v0.1c0.2,0.9,0.5,1.6,0.9,2
		c0.6,0.7,1.3,1,2,1c0.6,0,1.3-0.3,2.2-0.9c0.9-0.6,1.5-1.2,1.9-1.9c0.3,0.4,0.4,0.9,0.4,1.3c0,1.1-0.5,2-1.4,2.8
		c-0.9,0.8-1.9,1.1-3.1,1.1c-1.5,0-2.5-0.4-3.1-1.1l-1.2-1.5c-0.6-0.8-1.2-2-1.7-3.5c-0.5-1.4-0.7-2.8-0.8-4l-1.7-0.9
		c0.1,1.1,0.2,2.3,0.4,3.4c0.2,1.3,0.4,2.4,0.7,3.3c0.8,2.4,1.7,4.2,2.5,5.2c1.4,1.7,3.1,2.5,5.2,2.5c2,0,3.5-0.6,4.6-1.9
		c1-1.2,1.5-2.8,1.5-4.8c0-0.9-0.3-2-0.9-3.2c-0.7-1.4-1.5-2.2-2.4-2.2c-0.3,0-1,0.5-1.9,1.5c-0.9,1-1.4,1.5-1.4,1.5
		c-0.5,0-0.7-0.3-0.7-1v-4.5h10.9l0,0h1.8c-2,2.5-2.9,5.1-2.9,7.8c0,1.9,0.4,3.7,1.3,5.3c1.1,1.9,2.6,2.9,4.5,2.9
		c0.9,0,1.6-0.3,2.3-0.9c0.6-0.6,1-1.3,1-2.2c0-1-0.4-1.6-1.2-2.1c-0.3-0.3-0.7-0.4-1.1-0.4c-0.6,0-1.1,0.2-1.6,0.6
		c-0.5,0.4-0.7,0.9-0.7,1.5c0,0.1,0.1,0.6,0.4,1.4c-1.6-1-2.4-2.5-2.4-4.6c0-2.3,0.4-4.1,1.1-5.5c0.8-1.6,2.2-2.8,4.1-3.5
		c0.3-0.1,0.6-0.2,0.8-0.3c0.5,2.1,0.8,3.5,1,4.3c0.4,1.6,0.7,2.7,1.1,3.4c2.2,4.5,4.9,6.7,8.1,6.7c2,0,3.7-0.6,4.9-1.9
		c1.2-1.3,1.8-2.9,1.8-5c0-1-0.2-2.1-0.7-3.1c-0.5-1.1-1.2-2.1-2.1-2.7c-1.9,2.7-3,4.1-3.3,4.1c-0.2,0-0.3-0.1-0.3-0.4v-5.8h7.6l0,0
		h1.6c1.2,0,2,0.5,2.5,1.4c-0.6,0.2-1.2,0.8-1.8,1.6c-0.6,0.8-0.9,1.5-0.9,2.1c0,0.7,0.2,1.3,0.6,1.8c0.4,0.6,1,0.9,1.7,0.9
		c1.1,0,1.9-0.5,2.6-1.6c0.7,1,1.5,1.5,2.4,1.5c1.6,0,2.4-0.8,2.4-2.5c0-1-0.8-2.1-2.4-3.3c0.1-0.2,0.2-0.4,0.5-0.5
		c0.3-0.2,0.6-0.3,0.8-0.3c0.5,0,1.1,0.4,1.8,1.4c0.7,0.9,1,1.6,1,2.2l-0.2,10.3l2.3,2.3v-17.2h4.2l0,0h8.3v7
		c-1.6-2.8-3.4-4.2-5.6-4.2c-1.2,0-2.2,0.4-3,1.1c-0.8,0.7-1.3,1.7-1.3,2.9c0,2.3,1.1,3.4,3.4,3.4c0.7,0,1.3-0.2,1.8-0.6
		c0.5-0.4,0.7-1,0.7-1.7c0-0.9-0.3-1.7-0.8-2.2c1.5,0.1,2.9,1.3,4.1,3.8c1.1,2.2,1.6,4.1,1.6,6v0.6l1.2,1.7v-17.7h4.6l-2.4-2.2
		H144.7z M121.9,158.6c0.6,0,1.3-0.3,2.2-0.9c0.9-0.6,1.6-1.2,2-1.9c0.2,0.5,0.3,1,0.3,1.5c0,0.5-0.2,1-0.5,1.6
		c-0.8,1.6-2.3,2.4-4.3,2.4c-2.2,0-4.1-1-5.5-3c-1.1-1.6-1.9-3.7-2.4-6.4l-2-2c0.6-0.1,1.2-0.2,1.8-0.3h6.1v2.7
		c-0.7-0.9-1.4-1.4-2.2-1.4c-0.7,0-1.2,0.2-1.7,0.6c-0.6,0.4-0.8,1-0.8,1.6c0,1.8,0.7,2.6,2.1,2.6c0.4,0,0.8-0.1,1.2-0.4
		c0.4-0.3,0.6-0.7,0.6-1.1c0-0.1,0-0.2,0-0.2c0.3,0.4,0.6,0.7,0.7,1c0.3,0.8,0.5,1.5,0.8,2.3C120.4,158.2,121.1,158.6,121.9,158.6z"
		/>
</g>
</svg>
