<?xml version="1.0" encoding="UTF-8" standalone="no"?>
<!-- Created with Inkscape (http://www.inkscape.org/) -->

<svg
   version="1.1"
   id="svg2"
   width="446.44"
   height="367.65332"
   viewBox="0 0 446.44 367.65332"
   sodipodi:docname="robi-seeklogo.eps"
   xmlns:inkscape="http://www.inkscape.org/namespaces/inkscape"
   xmlns:sodipodi="http://sodipodi.sourceforge.net/DTD/sodipodi-0.dtd"
   xmlns="http://www.w3.org/2000/svg"
   xmlns:svg="http://www.w3.org/2000/svg">
  <defs
     id="defs6">
    <clipPath
       clipPathUnits="userSpaceOnUse"
       id="clipPath24">
      <path
         d="m 2745.59,1697.3 596.29,350.95 5.33,-700.23"
         id="path22" />
    </clipPath>
    <linearGradient
       x1="0"
       y1="0"
       x2="1"
       y2="0"
       gradientUnits="userSpaceOnUse"
       gradientTransform="matrix(601.621,0,0,-740.225,2745.59,2068.24)"
       spreadMethod="pad"
       id="linearGradient32">
      <stop
         style="stop-opacity:1;stop-color:#2e3192"
         offset="0"
         id="stop28" />
      <stop
         style="stop-opacity:1;stop-color:#8a248c"
         offset="1"
         id="stop30" />
    </linearGradient>
    <clipPath
       clipPathUnits="userSpaceOnUse"
       id="clipPath44">
      <path
         d="m 3342.54,2047.52 -595.7,-349.89 -10.65,716.87"
         id="path42" />
    </clipPath>
    <linearGradient
       x1="0"
       y1="0"
       x2="1"
       y2="0"
       gradientUnits="userSpaceOnUse"
       gradientTransform="matrix(179.993,339.987,817.828,-432.968,2440.02,1912.84)"
       spreadMethod="pad"
       id="linearGradient52">
      <stop
         style="stop-opacity:1;stop-color:#fff200"
         offset="0"
         id="stop48" />
      <stop
         style="stop-opacity:1;stop-color:#f1471d"
         offset="1"
         id="stop50" />
    </linearGradient>
  </defs>
  <sodipodi:namedview
     id="namedview4"
     pagecolor="#ffffff"
     bordercolor="#000000"
     borderopacity="0.25"
     inkscape:showpageshadow="2"
     inkscape:pageopacity="0.0"
     inkscape:pagecheckerboard="0"
     inkscape:deskcolor="#d1d1d1" />
  <g
     id="g8"
     inkscape:groupmode="layer"
     inkscape:label="ink_ext_XXXXXX"
     transform="matrix(1.3333333,0,0,-1.3333333,0,367.65333)">
    <g
       id="g10"
       transform="scale(0.1)">
      <path
         d="M 2136.28,1360.01 2747.16,1699 2741.51,995.719 2136.28,1360.01"
         style="fill:#ec008c;fill-opacity:1;fill-rule:nonzero;stroke:none"
         id="path12" />
      <path
         d="m 2127.48,2757.42 608.71,-342.92 -602.14,-363.46 -6.57,706.38"
         style="fill:#fddd04;fill-opacity:1;fill-rule:nonzero;stroke:none"
         id="path14" />
      <path
         d="M 2741.51,995.719 3348.32,1350.87 2747.16,1699"
         style="fill:#b01419;fill-opacity:1;fill-rule:nonzero;stroke:none"
         id="path16" />
      <g
         id="g18">
        <g
           id="g20"
           clip-path="url(#clipPath24)">
          <path
             d="m 2745.59,1697.3 596.29,350.95 5.33,-700.23"
             style="fill:#2e3192;fill-opacity:1;fill-rule:nonzero;stroke:none"
             id="path26" />
          <path
             d="m 2745.59,1697.3 596.29,350.95 5.33,-700.23"
             style="fill:url(#linearGradient32);fill-opacity:1;fill-rule:nonzero;stroke:none"
             id="path34" />
        </g>
      </g>
      <path
         d="m 2134.05,2051.04 612.72,-353.41 -10.58,716.87"
         style="fill:#f89c0e;fill-opacity:1;fill-rule:nonzero;stroke:none"
         id="path36" />
      <g
         id="g38">
        <g
           id="g40"
           clip-path="url(#clipPath44)">
          <path
             d="m 3342.54,2047.52 -595.7,-349.89 -10.65,716.87"
             style="fill:#fff200;fill-opacity:1;fill-rule:nonzero;stroke:none"
             id="path46" />
          <path
             d="m 3342.54,2047.52 -595.7,-349.89 -10.65,716.87"
             style="fill:url(#linearGradient52);fill-opacity:1;fill-rule:nonzero;stroke:none"
             id="path54" />
        </g>
      </g>
      <path
         d="m 0,995.828 c 0,0 21.0156,113.502 96.668,124.712 h 927.482 c 0,0 -147.099,93.87 -65.857,243.77 0,0 89.707,205.94 574.417,275.98 0,0 337.63,56.03 417.49,-123.29 0,0 85.43,-163.88 -58.85,-259.17 l -110.66,96.66 c 0,0 -13.98,10.15 13.33,37.48 0,0 48.34,71.44 6.31,107.16 0,0 -36.78,56.74 -218.55,34.67 0,0 -346.75,-61.99 -453.93,-234.31 0,0 -49.38,-113.48 89.32,-183.87 h 968.79 c 0,0 -29.43,-100.88 -77.76,-120.839 h -22.07 V 173.082 c 0,0 -467.58,118.746 -728.16,425.566 0,0 -11.56,42.032 61.99,101.911 0,0 187.03,186 516.96,250.082 v 50.449 H 1215.07 V 166.789 c 0,0 -128.19,27.301 -145.01,113.481 v 719.76 H 796.863 V 163.629 c 0,0 -436.785,107.871 -728.1716,424.512 0,0 -29.4141,57.789 61.9996,125.039 0,0 200.696,175.468 515.918,237.461 v 53.589 z M 630.449,356.969 624.871,746.48 C 379.719,703.059 318.059,597.941 318.059,597.941 361.523,491.461 630.449,356.969 630.449,356.969 Z m 1280.541,0 -5.59,389.511 C 1660.25,703.059 1598.58,597.941 1598.58,597.941 1641.99,491.461 1910.99,356.969 1910.99,356.969 Z M 308.27,1.12891 C 396.531,-18.5 425.945,106.199 425.945,106.199 466.531,214.09 367.109,257.512 367.109,257.512 287.258,279.93 232.617,132.809 232.617,132.809 224.211,13.6992 308.27,1.12891 308.27,1.12891"
         style="fill:#e31b22;fill-opacity:1;fill-rule:nonzero;stroke:none"
         id="path56" />
    </g>
  </g>
</svg>
