<svg width="55" height="12" viewBox="0 0 55 12" fill="none" xmlns="http://www.w3.org/2000/svg">
<mask id="mask0_13_8" style="mask-type:luminance" maskUnits="userSpaceOnUse" x="0" y="0" width="18" height="12">
<path d="M17.3559 0H0V12H17.3559V0Z" fill="white"/>
</mask>
<g mask="url(#mask0_13_8)">
<path d="M17.3559 10.0614C17.3559 10.0614 14.7123 9.66981 13.3154 9.55749C11.9739 9.4497 10.3842 9.38747 8.67871 9.38747C6.97326 9.38747 5.38354 9.4497 4.0424 9.55749C2.64509 9.67134 0.00189209 10.2148 0.00189209 10.2148V10.8979C0.00189209 11.5051 3.8868 11.9984 8.67871 11.9984C13.4706 11.9984 17.3555 11.5051 17.3555 10.8979L17.3559 10.0614Z" fill="#F0D50C"/>
<path d="M6.01079 1.00092C2.84233 2.12986 0.726468 5.12975 0.726288 8.49333V9.61968C1.85696 9.34955 3.00978 9.18239 4.17061 9.12026C4.16277 8.9042 4.15871 8.68648 4.15846 8.46714C4.15959 5.51161 4.87306 2.85209 6.01079 1.00092Z" fill="#F0D50C"/>
<path d="M16.6307 8.49338C16.6334 6.64776 15.9914 4.85915 14.8156 3.43657C15.3253 5.06466 15.5793 6.76197 15.5685 8.46795C15.5685 8.77838 15.5605 9.08527 15.5446 9.38861C15.9064 9.44431 16.2649 9.52033 16.6182 9.61631L16.6307 8.49338Z" fill="#FFF04D"/>
<path d="M16.6307 8.49338C16.6334 6.64776 15.9914 4.85915 14.8156 3.43657C15.3253 5.06466 15.5793 6.76197 15.5685 8.46795C15.5685 8.77838 15.5605 9.08527 15.5446 9.38861C15.9064 9.44431 16.2649 9.52033 16.6182 9.61631L16.6307 8.49338Z" fill="#FFEA00"/>
<path d="M14.8156 3.43622C12.6851 0.853583 9.16614 -0.119732 6.01127 1.00098C4.87278 2.85216 4.1597 5.51168 4.1597 8.46758C4.1597 8.68693 4.16374 8.90464 4.17185 9.12071C5.35587 9.02924 6.72663 8.97269 8.19452 8.96245C8.19452 8.96245 8.52808 8.96245 8.67952 8.96245C10.9756 8.93489 13.2705 9.07785 15.5454 9.39014C15.5608 9.08655 15.5688 8.77966 15.5693 8.46948C15.5801 6.76283 15.3258 5.06485 14.8156 3.43622Z" fill="#FFF04D"/>
<path d="M11.8774 3.96219L11.3734 0.812363C11.3376 0.58062 11.1716 0.390204 10.9469 0.323191C9.47844 -0.10773 7.91711 -0.10773 6.44868 0.323191C6.22413 0.390328 6.05824 0.580719 6.0225 0.812363L5.51816 3.96219" fill="#FFF04D"/>
<path d="M8.6795 8.89565C8.5277 8.89565 8.37704 8.89565 8.22751 8.89565H8.21082H8.19412C3.62763 8.92753 0.00229378 9.40721 0.00229378 9.99429V10.8451C-0.00510455 10.895 0.00552591 10.9459 0.0322741 10.9886C0.264197 10.8144 0.530779 10.692 0.814039 10.6296C1.53545 10.4541 2.26868 10.3313 3.00791 10.2622C3.42775 10.2162 3.8471 10.353 4.15894 10.6379C4.72988 11.1606 5.47589 11.4505 6.24996 11.4504H11.1075C11.8816 11.4504 12.6276 11.1606 13.1986 10.6379C13.5104 10.3527 13.9299 10.2157 14.3499 10.2618C15.0891 10.3309 15.8222 10.4537 16.5434 10.6292C16.8117 10.6808 17.065 10.7916 17.285 10.9537C17.2975 10.9662 17.3119 10.9772 17.3229 10.9886C17.3499 10.9456 17.3606 10.8945 17.3533 10.8444V9.99353C17.3559 9.38824 13.471 8.89565 8.6795 8.89565Z" fill="#FFF04D"/>
<path d="M10.507 6.36896L8.67709 7.49529V8.95826L10.507 6.36896Z" fill="#6E6F70"/>
<path d="M8.67912 8.95826V7.49529L6.84918 6.36896L8.67912 8.95826Z" fill="#0A0A0A"/>
<path d="M6.84918 5.70073L8.67912 6.75877V2.74104L6.84918 5.70073Z" fill="#0A0A0A"/>
<path d="M10.507 5.70064L8.67709 2.74057V4.64223V6.75831L10.507 5.70026V5.70064Z" fill="#6E6F70"/>
</g>
<path d="M20.1553 9C20.0953 9 20.0443 8.982 20.0023 8.946C19.9603 8.904 19.9393 8.85 19.9393 8.784V2.925C19.9393 2.859 19.9603 2.805 20.0023 2.763C20.0443 2.721 20.0953 2.7 20.1553 2.7H20.9743C21.0403 2.7 21.0913 2.721 21.1273 2.763C21.1693 2.805 21.1903 2.859 21.1903 2.925V5.247H23.8453V2.925C23.8453 2.859 23.8663 2.805 23.9083 2.763C23.9503 2.721 24.0013 2.7 24.0613 2.7H24.8713C24.9373 2.7 24.9913 2.721 25.0333 2.763C25.0753 2.805 25.0963 2.859 25.0963 2.925V8.784C25.0963 8.844 25.0753 8.895 25.0333 8.937C24.9913 8.979 24.9373 9 24.8713 9H24.0613C24.0013 9 23.9503 8.979 23.9083 8.937C23.8663 8.895 23.8453 8.844 23.8453 8.784V6.372H21.1903V8.784C21.1903 8.844 21.1693 8.895 21.1273 8.937C21.0913 8.979 21.0403 9 20.9743 9H20.1553ZM27.7557 9.09C27.4437 9.09 27.1617 9.03 26.9097 8.91C26.6577 8.784 26.4567 8.619 26.3067 8.415C26.1627 8.205 26.0907 7.971 26.0907 7.713C26.0907 7.293 26.2587 6.96 26.5947 6.714C26.9367 6.462 27.3867 6.294 27.9447 6.21L29.1777 6.03V5.841C29.1777 5.589 29.1147 5.394 28.9887 5.256C28.8627 5.118 28.6467 5.049 28.3407 5.049C28.1247 5.049 27.9477 5.094 27.8097 5.184C27.6777 5.268 27.5787 5.382 27.5127 5.526C27.4647 5.604 27.3957 5.643 27.3057 5.643H26.5947C26.5287 5.643 26.4777 5.625 26.4417 5.589C26.4117 5.553 26.3967 5.505 26.3967 5.445C26.4027 5.349 26.4417 5.232 26.5137 5.094C26.5857 4.956 26.6997 4.824 26.8557 4.698C27.0117 4.566 27.2127 4.455 27.4587 4.365C27.7047 4.275 28.0017 4.23 28.3497 4.23C28.7277 4.23 29.0457 4.278 29.3037 4.374C29.5677 4.464 29.7777 4.587 29.9337 4.743C30.0897 4.899 30.2037 5.082 30.2757 5.292C30.3477 5.502 30.3837 5.724 30.3837 5.958V8.784C30.3837 8.844 30.3627 8.895 30.3207 8.937C30.2787 8.979 30.2277 9 30.1677 9H29.4387C29.3727 9 29.3187 8.979 29.2767 8.937C29.2407 8.895 29.2227 8.844 29.2227 8.784V8.433C29.1447 8.547 29.0397 8.655 28.9077 8.757C28.7757 8.853 28.6137 8.934 28.4217 9C28.2357 9.06 28.0137 9.09 27.7557 9.09ZM28.0617 8.235C28.2717 8.235 28.4607 8.19 28.6287 8.1C28.8027 8.01 28.9377 7.872 29.0337 7.686C29.1357 7.494 29.1867 7.254 29.1867 6.966V6.777L28.2867 6.921C27.9327 6.975 27.6687 7.062 27.4947 7.182C27.3207 7.302 27.2337 7.449 27.2337 7.623C27.2337 7.755 27.2727 7.869 27.3507 7.965C27.4347 8.055 27.5397 8.124 27.6657 8.172C27.7917 8.214 27.9237 8.235 28.0617 8.235ZM31.7543 9C31.6943 9 31.6433 8.979 31.6013 8.937C31.5593 8.895 31.5383 8.844 31.5383 8.784V4.545C31.5383 4.479 31.5593 4.425 31.6013 4.383C31.6433 4.341 31.6943 4.32 31.7543 4.32H32.4833C32.5433 4.32 32.5943 4.341 32.6363 4.383C32.6843 4.425 32.7083 4.479 32.7083 4.545V4.914C32.8463 4.722 33.0233 4.575 33.2393 4.473C33.4613 4.371 33.7163 4.32 34.0043 4.32H34.3733C34.4393 4.32 34.4903 4.341 34.5263 4.383C34.5683 4.425 34.5893 4.476 34.5893 4.536V5.184C34.5893 5.244 34.5683 5.295 34.5263 5.337C34.4903 5.379 34.4393 5.4 34.3733 5.4H33.6713C33.3833 5.4 33.1583 5.481 32.9963 5.643C32.8403 5.805 32.7623 6.027 32.7623 6.309V8.784C32.7623 8.844 32.7413 8.895 32.6993 8.937C32.6573 8.979 32.6033 9 32.5373 9H31.7543ZM36.958 9.09C36.646 9.09 36.37 9.039 36.13 8.937C35.896 8.829 35.701 8.679 35.545 8.487C35.389 8.295 35.269 8.07 35.185 7.812C35.101 7.548 35.053 7.26 35.041 6.948C35.035 6.84 35.032 6.744 35.032 6.66C35.032 6.57 35.035 6.471 35.041 6.363C35.053 6.063 35.098 5.784 35.176 5.526C35.26 5.268 35.38 5.043 35.536 4.851C35.698 4.653 35.896 4.5 36.13 4.392C36.37 4.284 36.646 4.23 36.958 4.23C37.282 4.23 37.555 4.287 37.777 4.401C38.005 4.509 38.194 4.65 38.344 4.824V2.826C38.344 2.766 38.362 2.715 38.398 2.673C38.44 2.631 38.494 2.61 38.56 2.61H39.325C39.385 2.61 39.436 2.631 39.478 2.673C39.52 2.715 39.541 2.766 39.541 2.826V8.784C39.541 8.844 39.52 8.895 39.478 8.937C39.436 8.979 39.385 9 39.325 9H38.614C38.548 9 38.494 8.979 38.452 8.937C38.416 8.895 38.398 8.844 38.398 8.784V8.451C38.248 8.637 38.056 8.79 37.822 8.91C37.594 9.03 37.306 9.09 36.958 9.09ZM37.291 8.127C37.543 8.127 37.744 8.07 37.894 7.956C38.044 7.842 38.155 7.698 38.227 7.524C38.299 7.344 38.338 7.161 38.344 6.975C38.35 6.867 38.353 6.753 38.353 6.633C38.353 6.507 38.35 6.39 38.344 6.282C38.338 6.102 38.296 5.931 38.218 5.769C38.14 5.601 38.026 5.463 37.876 5.355C37.726 5.247 37.531 5.193 37.291 5.193C37.039 5.193 36.838 5.25 36.688 5.364C36.544 5.472 36.439 5.616 36.373 5.796C36.307 5.976 36.268 6.174 36.256 6.39C36.25 6.57 36.25 6.75 36.256 6.93C36.268 7.146 36.307 7.344 36.373 7.524C36.439 7.704 36.544 7.851 36.688 7.965C36.838 8.073 37.039 8.127 37.291 8.127ZM40.9655 9C40.9055 9 40.8545 8.979 40.8125 8.937C40.7705 8.895 40.7495 8.844 40.7495 8.784V2.826C40.7495 2.766 40.7705 2.715 40.8125 2.673C40.8545 2.631 40.9055 2.61 40.9655 2.61H41.7665C41.8325 2.61 41.8835 2.631 41.9195 2.673C41.9615 2.715 41.9825 2.766 41.9825 2.826V4.878C42.1445 4.686 42.3425 4.53 42.5765 4.41C42.8105 4.29 43.0985 4.23 43.4405 4.23C43.8065 4.23 44.1245 4.314 44.3945 4.482C44.6705 4.644 44.8835 4.875 45.0335 5.175C45.1835 5.475 45.2585 5.835 45.2585 6.255V8.784C45.2585 8.844 45.2375 8.895 45.1955 8.937C45.1535 8.979 45.1025 9 45.0425 9H44.2325C44.1725 9 44.1215 8.979 44.0795 8.937C44.0375 8.895 44.0165 8.844 44.0165 8.784V6.309C44.0165 5.961 43.9295 5.688 43.7555 5.49C43.5875 5.292 43.3415 5.193 43.0175 5.193C42.7055 5.193 42.4535 5.292 42.2615 5.49C42.0755 5.688 41.9825 5.961 41.9825 6.309V8.784C41.9825 8.844 41.9615 8.895 41.9195 8.937C41.8835 8.979 41.8325 9 41.7665 9H40.9655ZM47.7596 9.09C47.4476 9.09 47.1656 9.03 46.9136 8.91C46.6616 8.784 46.4606 8.619 46.3106 8.415C46.1666 8.205 46.0946 7.971 46.0946 7.713C46.0946 7.293 46.2626 6.96 46.5986 6.714C46.9406 6.462 47.3906 6.294 47.9486 6.21L49.1816 6.03V5.841C49.1816 5.589 49.1186 5.394 48.9926 5.256C48.8666 5.118 48.6506 5.049 48.3446 5.049C48.1286 5.049 47.9516 5.094 47.8136 5.184C47.6816 5.268 47.5826 5.382 47.5166 5.526C47.4686 5.604 47.3996 5.643 47.3096 5.643H46.5986C46.5326 5.643 46.4816 5.625 46.4456 5.589C46.4156 5.553 46.4006 5.505 46.4006 5.445C46.4066 5.349 46.4456 5.232 46.5176 5.094C46.5896 4.956 46.7036 4.824 46.8596 4.698C47.0156 4.566 47.2166 4.455 47.4626 4.365C47.7086 4.275 48.0056 4.23 48.3536 4.23C48.7316 4.23 49.0496 4.278 49.3076 4.374C49.5716 4.464 49.7816 4.587 49.9376 4.743C50.0936 4.899 50.2076 5.082 50.2796 5.292C50.3516 5.502 50.3876 5.724 50.3876 5.958V8.784C50.3876 8.844 50.3666 8.895 50.3246 8.937C50.2826 8.979 50.2316 9 50.1716 9H49.4426C49.3766 9 49.3226 8.979 49.2806 8.937C49.2446 8.895 49.2266 8.844 49.2266 8.784V8.433C49.1486 8.547 49.0436 8.655 48.9116 8.757C48.7796 8.853 48.6176 8.934 48.4256 9C48.2396 9.06 48.0176 9.09 47.7596 9.09ZM48.0656 8.235C48.2756 8.235 48.4646 8.19 48.6326 8.1C48.8066 8.01 48.9416 7.872 49.0376 7.686C49.1396 7.494 49.1906 7.254 49.1906 6.966V6.777L48.2906 6.921C47.9366 6.975 47.6726 7.062 47.4986 7.182C47.3246 7.302 47.2376 7.449 47.2376 7.623C47.2376 7.755 47.2766 7.869 47.3546 7.965C47.4386 8.055 47.5436 8.124 47.6696 8.172C47.7956 8.214 47.9276 8.235 48.0656 8.235ZM53.6133 9C53.2533 9 52.9503 8.937 52.7043 8.811C52.4583 8.685 52.2753 8.499 52.1553 8.253C52.0353 8.001 51.9753 7.689 51.9753 7.317V5.274H51.2643C51.2043 5.274 51.1533 5.253 51.1113 5.211C51.0693 5.169 51.0483 5.118 51.0483 5.058V4.536C51.0483 4.476 51.0693 4.425 51.1113 4.383C51.1533 4.341 51.2043 4.32 51.2643 4.32H51.9753V2.826C51.9753 2.766 51.9933 2.715 52.0293 2.673C52.0713 2.631 52.1253 2.61 52.1913 2.61H52.9203C52.9803 2.61 53.0313 2.631 53.0733 2.673C53.1153 2.715 53.1363 2.766 53.1363 2.826V4.32H54.2613C54.3213 4.32 54.3723 4.341 54.4143 4.383C54.4563 4.425 54.4773 4.476 54.4773 4.536V5.058C54.4773 5.118 54.4563 5.169 54.4143 5.211C54.3723 5.253 54.3213 5.274 54.2613 5.274H53.1363V7.227C53.1363 7.473 53.1783 7.665 53.2623 7.803C53.3523 7.941 53.5053 8.01 53.7213 8.01H54.3423C54.4023 8.01 54.4533 8.031 54.4953 8.073C54.5373 8.115 54.5583 8.166 54.5583 8.226V8.784C54.5583 8.844 54.5373 8.895 54.4953 8.937C54.4533 8.979 54.4023 9 54.3423 9H53.6133Z" fill="black"/>
</svg>
