<svg width="100" height="20" viewBox="0 0 100 20" fill="none" xmlns="http://www.w3.org/2000/svg">
<g clip-path="url(#clip0_5_111)">
<path d="M31.255 11.4592V3.83064H33.5155V11.4592C33.5155 12.1951 33.3542 12.8276 33.0316 13.3568C32.709 13.881 32.2681 14.2843 31.7087 14.5665C31.1542 14.8488 30.5292 14.9899 29.8337 14.9899C29.1129 14.9899 28.4753 14.869 27.9209 14.627C27.3664 14.3851 26.9305 14.0146 26.6129 13.5156C26.2954 13.0116 26.1366 12.374 26.1366 11.6028H28.4123C28.4123 12.0061 28.4677 12.3261 28.5786 12.563C28.6946 12.7999 28.8584 12.9687 29.0701 13.0695C29.2817 13.1704 29.5363 13.2208 29.8337 13.2208C30.121 13.2208 30.3705 13.1527 30.5822 13.0166C30.7938 12.8805 30.9577 12.6814 31.0736 12.4194C31.1946 12.1573 31.255 11.8372 31.255 11.4592ZM39.7303 12.9939V9.3498C39.7303 9.08771 39.6874 8.86342 39.6019 8.6769C39.5161 8.48538 39.3826 8.33671 39.201 8.23084C39.0248 8.125 38.7955 8.07206 38.5132 8.07206C38.2713 8.07206 38.0619 8.1149 37.8855 8.20061C37.709 8.28125 37.5732 8.39971 37.4774 8.55593C37.3816 8.70716 37.3336 8.88609 37.3336 9.09274H35.1561C35.1561 8.74496 35.2368 8.4148 35.3981 8.10232C35.5594 7.7898 35.7939 7.51513 36.1013 7.27822C36.4087 7.03629 36.7742 6.84729 37.1974 6.71119C37.6261 6.57509 38.1048 6.50706 38.6342 6.50706C39.269 6.50706 39.8335 6.6129 40.3277 6.82458C40.8216 7.03629 41.2097 7.35384 41.4919 7.77722C41.7794 8.20061 41.9229 8.72984 41.9229 9.3649V12.8654C41.9229 13.314 41.9506 13.682 42.0061 13.9693C42.0616 14.2515 42.1423 14.4985 42.2481 14.7102V14.8387H40.0477C39.9419 14.6169 39.8613 14.3397 39.8058 14.0071C39.7555 13.6694 39.7303 13.3316 39.7303 12.9939ZM40.0177 9.85635L40.0329 11.0887H38.8155C38.5284 11.0887 38.2787 11.1215 38.0671 11.187C37.8555 11.2525 37.6813 11.3458 37.5455 11.4667C37.4094 11.5826 37.3084 11.7187 37.2429 11.875C37.1826 12.0313 37.1523 12.2026 37.1523 12.3891C37.1523 12.5756 37.1952 12.7444 37.2806 12.8957C37.3665 13.0418 37.49 13.1578 37.6513 13.2434C37.8126 13.3241 38.0016 13.3644 38.2184 13.3644C38.5458 13.3644 38.8306 13.2989 39.0726 13.1678C39.3145 13.0368 39.501 12.8755 39.6319 12.684C39.7681 12.4924 39.8387 12.311 39.8439 12.1396L40.4184 13.062C40.3377 13.2686 40.2268 13.4829 40.0858 13.7046C39.9497 13.9264 39.7758 14.1356 39.5639 14.3322C39.3523 14.5237 39.0977 14.6824 38.8003 14.8084C38.5029 14.9294 38.1503 14.9899 37.7419 14.9899C37.2229 14.9899 36.7516 14.8866 36.3281 14.6799C35.9097 14.4683 35.5771 14.1784 35.33 13.8105C35.0881 13.4375 34.9671 13.0141 34.9671 12.5403C34.9671 12.1119 35.0477 11.7314 35.209 11.3987C35.3703 11.066 35.6074 10.7863 35.92 10.5595C36.2374 10.3276 36.6329 10.1537 37.1068 10.0378C37.5806 9.91684 38.13 9.85635 38.7552 9.85635H40.0177ZM46.2626 13.251L48.0771 6.65825H50.3529L47.5932 14.8387H46.2171L46.2626 13.251ZM45.0152 6.65825L46.8371 13.2586L46.8748 14.8387H45.4913L42.7319 6.65825H45.0152ZM55.6226 12.9939V9.3498C55.6226 9.08771 55.5797 8.86342 55.4939 8.6769C55.4084 8.48538 55.2748 8.33671 55.0932 8.23084C54.9168 8.125 54.6874 8.07206 54.4052 8.07206C54.1632 8.07206 53.9542 8.1149 53.7777 8.20061C53.6013 8.28125 53.4652 8.39971 53.3694 8.55593C53.2736 8.70716 53.2258 8.88609 53.2258 9.09274H51.0484C51.0484 8.74496 51.129 8.4148 51.2903 8.10232C51.4516 7.7898 51.6861 7.51513 51.9935 7.27822C52.301 7.03629 52.6665 6.84729 53.0897 6.71119C53.5181 6.57509 53.9971 6.50706 54.5261 6.50706C55.1613 6.50706 55.7258 6.6129 56.2197 6.82458C56.7136 7.03629 57.1019 7.35384 57.3842 7.77722C57.6713 8.20061 57.8152 8.72984 57.8152 9.3649V12.8654C57.8152 13.314 57.8426 13.682 57.8981 13.9693C57.9535 14.2515 58.0342 14.4985 58.14 14.7102V14.8387H55.94C55.8342 14.6169 55.7536 14.3397 55.6981 14.0071C55.6477 13.6694 55.6226 13.3316 55.6226 12.9939ZM55.9097 9.85635L55.9248 11.0887H54.7077C54.4203 11.0887 54.171 11.1215 53.959 11.187C53.7474 11.2525 53.5736 11.3458 53.4374 11.4667C53.3013 11.5826 53.2006 11.7187 53.1352 11.875C53.0745 12.0313 53.0445 12.2026 53.0445 12.3891C53.0445 12.5756 53.0871 12.7444 53.1729 12.8957C53.2587 13.0418 53.3819 13.1578 53.5432 13.2434C53.7045 13.3241 53.8936 13.3644 54.1103 13.3644C54.4381 13.3644 54.7229 13.2989 54.9648 13.1678C55.2068 13.0368 55.3932 12.8755 55.5242 12.684C55.6603 12.4924 55.731 12.311 55.7358 12.1396L56.3103 13.062C56.2297 13.2686 56.119 13.4829 55.9777 13.7046C55.8416 13.9264 55.6677 14.1356 55.4561 14.3322C55.2445 14.5237 54.99 14.6824 54.6926 14.8084C54.3952 14.9294 54.0423 14.9899 53.6342 14.9899C53.1148 14.9899 52.6435 14.8866 52.2203 14.6799C51.8019 14.4683 51.4694 14.1784 51.2223 13.8105C50.9803 13.4375 50.8594 13.0141 50.8594 12.5403C50.8594 12.1119 50.94 11.7314 51.1013 11.3987C51.2626 11.066 51.4994 10.7863 51.8119 10.5595C52.1297 10.3276 52.5252 10.1537 52.999 10.0378C53.4729 9.91684 54.0223 9.85635 54.6471 9.85635H55.9097ZM65.3603 11.9582C65.3603 11.7616 65.33 11.5852 65.2697 11.4289C65.2142 11.2676 65.1084 11.1215 64.9523 10.9904C64.7958 10.8543 64.5768 10.7208 64.2942 10.5897C64.0123 10.4587 63.6468 10.3226 63.1981 10.1814C62.699 10.0202 62.2252 9.83871 61.7768 9.63709C61.3332 9.43548 60.94 9.20109 60.5974 8.93396C60.2597 8.6618 59.9926 8.34677 59.7958 7.9889C59.6042 7.63103 59.5087 7.21522 59.5087 6.74142C59.5087 6.28277 59.6094 5.86693 59.811 5.49393C60.0126 5.11593 60.2948 4.79335 60.6577 4.52619C61.0206 4.25403 61.449 4.04487 61.9429 3.89867C62.4419 3.75251 62.989 3.67942 63.5835 3.67942C64.3952 3.67942 65.1032 3.82561 65.7081 4.11793C66.3129 4.41029 66.7816 4.811 67.1145 5.32006C67.4523 5.82913 67.621 6.41129 67.621 7.06651H65.3681C65.3681 6.74393 65.3 6.46167 65.1639 6.21974C65.0329 5.97277 64.8313 5.77874 64.559 5.63761C64.2919 5.49648 63.9542 5.4259 63.5458 5.4259C63.1526 5.4259 62.8252 5.48638 62.5629 5.60735C62.301 5.72329 62.1042 5.88206 61.9732 6.08367C61.8423 6.28025 61.7768 6.502 61.7768 6.749C61.7768 6.93548 61.8219 7.10432 61.9129 7.25555C62.0087 7.40674 62.1497 7.54787 62.3361 7.67893C62.5226 7.80996 62.7519 7.93348 63.0242 8.04938C63.2965 8.16532 63.6113 8.27874 63.9694 8.38961C64.569 8.57106 65.0958 8.77519 65.5494 9.002C66.0081 9.22884 66.391 9.48335 66.6987 9.76561C67.0061 10.0479 67.2381 10.3679 67.3942 10.7258C67.5503 11.0837 67.6284 11.4894 67.6284 11.943C67.6284 12.4219 67.5352 12.8503 67.3487 13.2283C67.1623 13.6064 66.8926 13.9264 66.5397 14.1885C66.1871 14.4506 65.7661 14.6497 65.2771 14.7858C64.7884 14.9219 64.2413 14.9899 63.6365 14.9899C63.0923 14.9899 62.5555 14.9194 62.0261 14.7782C61.4971 14.6321 61.0155 14.4128 60.5823 14.1204C60.1539 13.8281 59.811 13.4551 59.5539 13.0015C59.2968 12.5479 59.1684 12.0111 59.1684 11.3911H61.4442C61.4442 11.7339 61.4971 12.0237 61.6029 12.2606C61.7087 12.4975 61.8574 12.689 62.049 12.8352C62.2455 12.9814 62.4774 13.0872 62.7445 13.1527C63.0168 13.2183 63.3139 13.251 63.6365 13.251C64.0297 13.251 64.3523 13.1955 64.6042 13.0847C64.8613 12.9738 65.0503 12.8201 65.1713 12.6235C65.2974 12.4269 65.3603 12.2051 65.3603 11.9582ZM72.4142 13.2888C72.6813 13.2888 72.9184 13.2384 73.1252 13.1376C73.3316 13.0317 73.4929 12.8856 73.609 12.6991C73.7297 12.5075 73.7929 12.2833 73.7977 12.0262H75.8468C75.8416 12.6008 75.6881 13.1124 75.3855 13.561C75.0832 14.0045 74.6774 14.3548 74.1684 14.6119C73.6594 14.8639 73.0897 14.9899 72.4597 14.9899C71.8245 14.9899 71.2703 14.8841 70.7965 14.6724C70.3277 14.4607 69.9371 14.1684 69.6245 13.7954C69.3119 13.4174 69.0777 12.9788 68.9213 12.4798C68.7652 11.9758 68.6871 11.4365 68.6871 10.8619V10.6426C68.6871 10.063 68.7652 9.52367 68.9213 9.02471C69.0777 8.52067 69.3119 8.08216 69.6245 7.70916C69.9371 7.33116 70.3277 7.03629 70.7965 6.82458C71.2652 6.6129 71.8145 6.50706 72.4445 6.50706C73.1148 6.50706 73.7023 6.63558 74.2061 6.89264C74.7152 7.14971 75.1136 7.51764 75.4007 7.99648C75.6929 8.47025 75.8416 9.03225 75.8468 9.68245H73.7977C73.7929 9.41029 73.7348 9.16329 73.6239 8.94154C73.5181 8.71974 73.3619 8.54335 73.1552 8.41229C72.9536 8.27619 72.7042 8.20816 72.4068 8.20816C72.0894 8.20816 71.8297 8.27619 71.6281 8.41229C71.4265 8.54335 71.2703 8.7248 71.1594 8.95664C71.0484 9.18348 70.9703 9.44303 70.9248 9.73538C70.8845 10.0227 70.8645 10.3251 70.8645 10.6426V10.8619C70.8645 11.1794 70.8845 11.4844 70.9248 11.7767C70.9652 12.0691 71.041 12.3286 71.1516 12.5554C71.2677 12.7823 71.4265 12.9612 71.6281 13.0922C71.8297 13.2233 72.0916 13.2888 72.4142 13.2888ZM79.2868 8.44254V14.8387H77.1094V6.65825H79.1584L79.2868 8.44254ZM81.7516 6.60535L81.7136 8.624C81.6077 8.60887 81.4794 8.59625 81.3281 8.58619C81.1819 8.57106 81.0484 8.56351 80.9274 8.56351C80.62 8.56351 80.3529 8.60384 80.1261 8.68448C79.9042 8.76006 79.7177 8.87348 79.5665 9.02471C79.4203 9.1759 79.3094 9.35987 79.2339 9.57661C79.1632 9.79335 79.1229 10.0403 79.1129 10.3175L78.6745 10.1814C78.6745 9.65222 78.7274 9.16583 78.8332 8.72229C78.939 8.27367 79.0929 7.88306 79.2942 7.55038C79.501 7.21774 79.7529 6.96067 80.0503 6.77922C80.3477 6.59777 80.6881 6.50706 81.071 6.50706C81.1919 6.50706 81.3155 6.51713 81.4416 6.53729C81.5674 6.55242 81.671 6.57509 81.7516 6.60535ZM85.0781 6.65825V14.8387H82.8932V6.65825H85.0781ZM82.7571 4.52619C82.7571 4.20867 82.8681 3.94658 83.0897 3.73993C83.3116 3.53325 83.609 3.42993 83.9819 3.42993C84.3497 3.42993 84.6445 3.53325 84.8665 3.73993C85.0932 3.94658 85.2068 4.20867 85.2068 4.52619C85.2068 4.84374 85.0932 5.10583 84.8665 5.31251C84.6445 5.51916 84.3497 5.62248 83.9819 5.62248C83.609 5.62248 83.3116 5.51916 83.0897 5.31251C82.8681 5.10583 82.7571 4.84374 82.7571 4.52619ZM89.0548 8.23084V17.9839H86.8774V6.65825H88.8961L89.0548 8.23084ZM94.2339 10.6578V10.8165C94.2339 11.4113 94.1632 11.9632 94.0223 12.4723C93.8861 12.9814 93.6845 13.4249 93.4174 13.8029C93.1503 14.1759 92.8174 14.4683 92.4194 14.6799C92.0261 14.8866 91.5726 14.9899 91.0584 14.9899C90.5594 14.9899 90.1261 14.8891 89.7581 14.6875C89.39 14.4859 89.08 14.2036 88.8281 13.8407C88.5813 13.4728 88.3819 13.0469 88.231 12.563C88.0797 12.0791 87.9639 11.56 87.8832 11.0055V10.5897C87.9639 9.99496 88.0797 9.45061 88.231 8.95664C88.3819 8.45767 88.5813 8.02671 88.8281 7.6638C89.08 7.29587 89.3877 7.01109 89.7506 6.80948C90.1184 6.60787 90.5494 6.50706 91.0432 6.50706C91.5626 6.50706 92.0187 6.60535 92.4119 6.8019C92.81 6.99848 93.1426 7.28074 93.4097 7.64867C93.6819 8.01664 93.8861 8.45513 94.0223 8.96422C94.1632 9.47329 94.2339 10.0378 94.2339 10.6578ZM92.049 10.8165V10.6578C92.049 10.31 92.0187 9.98993 91.9581 9.69758C91.9026 9.40019 91.8119 9.14061 91.6861 8.91883C91.5652 8.69706 91.4039 8.52571 91.2023 8.40474C91.0055 8.27874 90.7661 8.21574 90.4839 8.21574C90.1865 8.21574 89.9319 8.26361 89.7203 8.35938C89.5135 8.45513 89.3448 8.59374 89.2136 8.77519C89.0826 8.95664 88.9845 9.17338 88.9187 9.42542C88.8532 9.67742 88.8129 9.96219 88.7977 10.2797V11.3306C88.8232 11.7036 88.8935 12.0388 89.0097 12.3362C89.1255 12.6285 89.3045 12.8604 89.5465 13.0317C89.7884 13.2031 90.1058 13.2888 90.499 13.2888C90.7865 13.2888 91.0284 13.2258 91.2248 13.0998C91.4213 12.9687 91.58 12.7898 91.701 12.563C91.8271 12.3362 91.9155 12.0741 91.9658 11.7767C92.0213 11.4793 92.049 11.1593 92.049 10.8165ZM99.5942 6.65825V8.20061H94.8313V6.65825H99.5942ZM96.0106 4.63961H98.1881V12.374C98.1881 12.6109 98.2184 12.7923 98.2787 12.9184C98.3442 13.0444 98.44 13.1325 98.5661 13.183C98.6919 13.2283 98.851 13.251 99.0423 13.251C99.1784 13.251 99.2994 13.246 99.4052 13.2359C99.5161 13.2208 99.6094 13.2056 99.6848 13.1905L99.6926 14.7934C99.5061 14.8538 99.3045 14.9017 99.0877 14.937C98.871 14.9723 98.6316 14.9899 98.3694 14.9899C97.8906 14.9899 97.4723 14.9118 97.1145 14.7555C96.7616 14.5943 96.4894 14.3372 96.2977 13.9844C96.1065 13.6315 96.0106 13.1678 96.0106 12.5933V4.63961Z" fill="black"/>
<mask id="mask0_5_111" style="mask-type:luminance" maskUnits="userSpaceOnUse" x="0" y="0" width="20" height="20">
<path d="M19.3548 0H0V19.3548H19.3548V0Z" fill="white"/>
</mask>
<g mask="url(#mask0_5_111)">
<path d="M0 0H19.3548V19.3548H0V0Z" fill="#F0DB4F"/>
<path d="M17.7707 14.7387C17.6291 13.8556 17.0532 13.1142 15.3477 12.4224C14.7553 12.1501 14.0948 11.9551 13.8979 11.5062C13.828 11.2449 13.8188 11.0977 13.863 10.9395C13.9899 10.4262 14.6026 10.2662 15.0883 10.4134C15.4011 10.5182 15.6973 10.7593 15.8757 11.1437C16.711 10.6029 16.7092 10.6065 17.2924 10.2349C17.079 9.90374 16.9649 9.751 16.8251 9.60935C16.3228 9.04822 15.6384 8.75939 14.5437 8.78145C14.3542 8.80535 14.1629 8.83109 13.9734 8.85503C13.427 8.99303 12.9063 9.28003 12.6009 9.66455C11.6846 10.7041 11.9459 12.5236 13.0608 13.2724C14.1592 14.0967 15.7727 14.2843 15.9788 15.0552C16.1793 15.999 15.2852 16.3044 14.3965 16.1959C13.7416 16.0597 13.3773 15.7267 12.9835 15.1214C12.2587 15.5409 12.2587 15.5409 11.5136 15.9696C11.6902 16.356 11.876 16.5307 12.1722 16.8656C13.5742 18.2878 17.0827 18.2178 17.7119 16.0653C17.7376 15.9916 17.9069 15.4986 17.7707 14.7387ZM10.5219 8.89548H8.71152C8.71152 10.4594 8.70416 12.0121 8.70416 13.576C8.70416 14.5713 8.75568 15.4839 8.59377 15.7635C8.32884 16.3136 7.64261 16.2455 7.32984 16.1388C7.01155 15.9824 6.84965 15.7598 6.66197 15.4452C6.61045 15.3551 6.57184 15.2852 6.55894 15.2796C6.06771 15.5795 5.57832 15.8813 5.0871 16.1812C5.33181 16.6834 5.69239 17.1194 6.15416 17.4028C6.8441 17.8167 7.77139 17.9437 8.74097 17.7211C9.37203 17.5371 9.91658 17.1563 10.2018 16.5767C10.6139 15.8169 10.5256 14.897 10.5219 13.8795C10.5311 12.22 10.5219 10.5605 10.5219 8.89548Z" fill="#323330"/>
</g>
</g>
<defs>
<clipPath id="clip0_5_111">
<rect width="100" height="19.3548" fill="white"/>
</clipPath>
</defs>
</svg>
