<svg width="18" height="6" viewBox="0 0 18 6" fill="none" xmlns="http://www.w3.org/2000/svg">
<g clip-path="url(#clip0_14_30)">
<path fill-rule="evenodd" clip-rule="evenodd" d="M3.00602 0L0.202988 0.972982L0.60427 4.69171L3.00602 6V0Z" fill="#412846"/>
<path fill-rule="evenodd" clip-rule="evenodd" d="M2.99397 0L5.797 0.972982L5.39571 4.69171L2.99397 6V0Z" fill="#4B314F"/>
<path fill-rule="evenodd" clip-rule="evenodd" d="M4.39713 2.05314L4.39662 2.05154C4.52461 2.194 4.59035 2.36314 4.59384 2.55899C4.59734 2.75483 4.5316 2.96143 4.39511 3.17813C4.49712 3.09883 4.61492 2.92766 4.74813 2.6666C4.80568 3.19567 4.59187 3.59755 4.10471 3.87277C4.26024 3.85843 4.46675 3.75603 4.72287 3.56521C4.44955 4.22324 3.94701 4.57042 3.21524 4.60676C2.50803 4.60657 2.04989 4.18158 2.05025 4.18185C1.75949 3.95555 1.55944 3.67034 1.45078 3.32748C1.27688 3.13757 1.27515 3.1172 1.25721 3.04132C1.23927 2.96543 1.26854 2.94423 1.31948 2.86998C1.35345 2.82048 1.36144 2.74926 1.344 2.65762C1.3007 2.59758 1.27578 2.50355 1.26921 2.37553C1.26921 2.31366 1.31049 2.24838 1.39308 2.1797C1.47565 2.11101 1.52632 2.05818 1.54467 2.02182C1.55867 2.00199 1.56408 1.91603 1.5609 1.76395C1.56004 1.61456 1.64298 1.53329 1.80973 1.52013C2.05983 1.50038 2.20088 1.31228 2.27946 1.22674C2.33184 1.16971 2.40938 1.14199 2.50715 1.14146C2.64483 1.13501 2.77008 1.18778 2.87799 1.29668C3.14675 1.28278 3.42205 1.35526 3.701 1.51228C4.0974 1.74776 4.31375 2.00276 4.35002 2.27602C4.30753 2.63562 3.82445 2.62623 2.90293 2.24773C2.42069 2.38433 2.18361 2.68033 2.19148 3.13574C2.19116 3.55365 2.39342 3.85732 2.79687 4.04645C2.60023 3.85339 2.51648 3.69112 2.54469 3.55674C2.95371 4.04112 3.4196 4.22217 3.94157 4.09991C3.71144 4.10795 3.52916 4.0339 3.39197 3.87666C3.74479 3.86808 4.07785 3.7043 4.39148 3.38365C4.21044 3.52772 4.02099 3.58227 3.8204 3.54796C4.36367 3.12084 4.55592 2.62257 4.39713 2.05314ZM3.41109 1.98743C3.45513 1.98743 3.49083 1.95173 3.49083 1.90769C3.49083 1.86364 3.45513 1.82794 3.41109 1.82794C3.36705 1.82794 3.33135 1.86364 3.33135 1.90769C3.33135 1.95173 3.36705 1.98743 3.41109 1.98743Z" fill="#BA2BD2"/>
</g>
<path d="M7.78691 4C7.76024 4 7.73757 3.99067 7.71891 3.972C7.70024 3.95333 7.69091 3.93067 7.69091 3.904V1.3C7.69091 1.27067 7.70024 1.24667 7.71891 1.228C7.73757 1.20933 7.76024 1.2 7.78691 1.2H8.09491C8.13224 1.2 8.15891 1.20933 8.17491 1.228C8.19357 1.244 8.20557 1.256 8.21091 1.264L9.36291 3.056V1.3C9.36291 1.27067 9.37091 1.24667 9.38691 1.228C9.40557 1.20933 9.42957 1.2 9.45891 1.2H9.79491C9.82424 1.2 9.84824 1.20933 9.86691 1.228C9.88557 1.24667 9.89491 1.27067 9.89491 1.3V3.9C9.89491 3.92933 9.88557 3.95333 9.86691 3.972C9.84824 3.99067 9.82557 4 9.79891 4H9.48691C9.44957 4 9.42291 3.99067 9.40691 3.972C9.39091 3.95333 9.37891 3.94133 9.37091 3.936L8.22291 2.184V3.904C8.22291 3.93067 8.21357 3.95333 8.19491 3.972C8.17624 3.99067 8.15224 4 8.12291 4H7.78691ZM11.411 4.88C11.2164 4.88 11.0564 4.85467 10.931 4.804C10.8057 4.75333 10.707 4.692 10.635 4.62C10.563 4.548 10.511 4.476 10.479 4.404C10.4497 4.33467 10.4337 4.28 10.431 4.24C10.4284 4.21333 10.4364 4.18933 10.455 4.168C10.4764 4.14933 10.5004 4.14 10.527 4.14H10.875C10.9017 4.14 10.923 4.14533 10.939 4.156C10.955 4.16933 10.9684 4.192 10.979 4.224C10.995 4.25867 11.0164 4.296 11.043 4.336C11.0697 4.376 11.1097 4.40933 11.163 4.436C11.219 4.46533 11.295 4.48 11.391 4.48C11.4924 4.48 11.5777 4.46533 11.647 4.436C11.7164 4.40667 11.7684 4.35733 11.803 4.288C11.8404 4.21867 11.859 4.12267 11.859 4V3.728C11.795 3.80533 11.7124 3.868 11.611 3.916C11.5124 3.964 11.3897 3.988 11.243 3.988C11.099 3.988 10.975 3.96533 10.871 3.92C10.767 3.872 10.6804 3.80667 10.611 3.724C10.5417 3.63867 10.4884 3.53867 10.451 3.424C10.4164 3.30933 10.3964 3.18267 10.391 3.044C10.3884 2.972 10.3884 2.9 10.391 2.828C10.3964 2.69467 10.4164 2.57067 10.451 2.456C10.4857 2.34133 10.5377 2.24133 10.607 2.156C10.679 2.068 10.767 2 10.871 1.952C10.975 1.904 11.099 1.88 11.243 1.88C11.395 1.88 11.523 1.90933 11.627 1.968C11.731 2.024 11.8164 2.09467 11.883 2.18V2.02C11.883 1.99067 11.8924 1.96667 11.911 1.948C11.9297 1.92933 11.9524 1.92 11.979 1.92H12.303C12.3297 1.92 12.3524 1.92933 12.371 1.948C12.3897 1.96667 12.399 1.99067 12.399 2.02L12.403 3.948C12.403 4.14 12.367 4.30533 12.295 4.444C12.223 4.58267 12.1137 4.68933 11.967 4.764C11.823 4.84133 11.6377 4.88 11.411 4.88ZM11.391 3.564C11.5004 3.564 11.5884 3.54 11.655 3.492C11.7217 3.444 11.771 3.38133 11.803 3.304C11.835 3.22667 11.8537 3.148 11.859 3.068C11.8617 3.03333 11.863 2.98933 11.863 2.936C11.863 2.88267 11.8617 2.84 11.859 2.808C11.8537 2.72533 11.835 2.64667 11.803 2.572C11.771 2.49467 11.7217 2.432 11.655 2.384C11.5884 2.33333 11.5004 2.308 11.391 2.308C11.2817 2.308 11.1937 2.33333 11.127 2.384C11.0604 2.432 11.0124 2.496 10.983 2.576C10.9564 2.656 10.9404 2.744 10.935 2.84C10.9297 2.904 10.9297 2.96933 10.935 3.036C10.9404 3.12933 10.9564 3.21733 10.983 3.3C11.0124 3.38 11.0604 3.444 11.127 3.492C11.1937 3.54 11.2817 3.564 11.391 3.564ZM13.0799 4C13.0532 4 13.0305 3.99067 13.0119 3.972C12.9932 3.95333 12.9839 3.93067 12.9839 3.904V1.3C12.9839 1.27067 12.9932 1.24667 13.0119 1.228C13.0305 1.20933 13.0532 1.2 13.0799 1.2H14.1159C14.4385 1.2 14.6932 1.27467 14.8799 1.424C15.0665 1.57333 15.1599 1.79067 15.1599 2.076C15.1599 2.27333 15.1105 2.43733 15.0119 2.568C14.9159 2.69867 14.7865 2.79333 14.6239 2.852L15.2079 3.872C15.2159 3.888 15.2199 3.90267 15.2199 3.916C15.2199 3.94 15.2105 3.96 15.1919 3.976C15.1759 3.992 15.1572 4 15.1359 4H14.7719C14.7265 4 14.6919 3.988 14.6679 3.964C14.6439 3.94 14.6252 3.916 14.6119 3.892L14.0959 2.944H13.5399V3.904C13.5399 3.93067 13.5305 3.95333 13.5119 3.972C13.4959 3.99067 13.4732 4 13.4439 4H13.0799ZM13.5399 2.492H14.1039C14.2665 2.492 14.3879 2.456 14.4679 2.384C14.5479 2.30933 14.5879 2.20533 14.5879 2.072C14.5879 1.93867 14.5479 1.83467 14.4679 1.76C14.3905 1.68267 14.2692 1.644 14.1039 1.644H13.5399V2.492ZM15.5393 4C15.5153 4 15.4939 3.992 15.4753 3.976C15.4593 3.95733 15.4513 3.936 15.4513 3.912C15.4513 3.904 15.4526 3.89467 15.4553 3.884C15.4606 3.87333 15.4686 3.86 15.4793 3.844L16.1593 2.932L15.5273 2.076C15.5193 2.06267 15.5126 2.05067 15.5073 2.04C15.5046 2.02933 15.5033 2.01867 15.5033 2.008C15.5033 1.984 15.5113 1.964 15.5273 1.948C15.5459 1.92933 15.5673 1.92 15.5913 1.92H15.9393C15.9713 1.92 15.9953 1.928 16.0113 1.944C16.0273 1.96 16.0393 1.97467 16.0473 1.988L16.4993 2.588L16.9513 1.988C16.9619 1.97467 16.9739 1.96 16.9873 1.944C17.0033 1.928 17.0273 1.92 17.0593 1.92H17.3913C17.4153 1.92 17.4353 1.92933 17.4513 1.948C17.4699 1.964 17.4793 1.98267 17.4793 2.004C17.4793 2.01733 17.4766 2.02933 17.4713 2.04C17.4686 2.05067 17.4633 2.06267 17.4553 2.076L16.8153 2.94L17.4993 3.844C17.5099 3.86 17.5166 3.87333 17.5193 3.884C17.5246 3.89467 17.5273 3.904 17.5273 3.912C17.5273 3.936 17.5179 3.95733 17.4993 3.976C17.4833 3.992 17.4633 4 17.4393 4H17.0753C17.0459 4 17.0233 3.99333 17.0073 3.98C16.9913 3.964 16.9779 3.94933 16.9673 3.936L16.4873 3.3L15.9993 3.936C15.9886 3.94933 15.9753 3.964 15.9593 3.98C15.9459 3.99333 15.9233 4 15.8913 4H15.5393Z" fill="#412846"/>
<defs>
<clipPath id="clip0_14_30">
<rect width="6" height="6" fill="white"/>
</clipPath>
</defs>
</svg>
