<svg width="66" height="15" viewBox="0 0 66 15" fill="none" xmlns="http://www.w3.org/2000/svg">
<mask id="mask0_13_7" style="mask-type:luminance" maskUnits="userSpaceOnUse" x="0" y="0" width="10" height="15">
<path d="M9.60863 0.149414H0V14.1494H9.60863V0.149414Z" fill="white"/>
</mask>
<g mask="url(#mask0_13_7)">
<path opacity="0.45" d="M7.18766 0.149414L4.79056 4.14965H0L2.39527 0.149414H7.18766Z" fill="black"/>
<path opacity="0.6" d="M4.79052 4.14965H9.5829L7.18763 0.149414H2.39523L4.79052 4.14965Z" fill="black"/>
<path opacity="0.8" d="M2.39527 8.14817L4.79056 4.14965L2.39527 0.149414L0 4.14965L2.39527 8.14817Z" fill="black"/>
<path opacity="0.45" d="M2.41913 14.1493L4.81624 10.149H9.60863L7.21153 14.1493H2.41913Z" fill="black"/>
<path opacity="0.6" d="M4.81634 10.149H0.0239563L2.41923 14.1493H7.21162L4.81634 10.149Z" fill="black"/>
<path opacity="0.8" d="M7.21139 6.15067L4.8161 10.1491L7.21139 14.1494L9.6085 10.1491L7.21139 6.15067Z" fill="black"/>
</g>
<path d="M17.3524 12.14C16.4844 12.14 15.7564 12.014 15.1684 11.762C14.5897 11.5007 14.1464 11.1647 13.8384 10.754C13.5397 10.334 13.3811 9.89533 13.3624 9.438C13.3624 9.354 13.3904 9.284 13.4464 9.228C13.5024 9.172 13.5724 9.144 13.6564 9.144H14.9024C15.0237 9.144 15.1124 9.172 15.1684 9.228C15.2337 9.27467 15.2897 9.33533 15.3364 9.41C15.3924 9.58733 15.4997 9.76467 15.6584 9.942C15.8171 10.11 16.0317 10.25 16.3024 10.362C16.5824 10.474 16.9324 10.53 17.3524 10.53C18.0244 10.53 18.5237 10.418 18.8504 10.194C19.1864 9.97 19.3544 9.66667 19.3544 9.284C19.3544 9.01333 19.2657 8.79867 19.0884 8.64C18.9111 8.472 18.6357 8.32267 18.2624 8.192C17.8984 8.052 17.4131 7.90733 16.8064 7.758C16.1064 7.59 15.5184 7.38933 15.0424 7.156C14.5757 6.91333 14.2211 6.61 13.9784 6.246C13.7451 5.882 13.6284 5.42 13.6284 4.86C13.6284 4.31867 13.7731 3.838 14.0624 3.418C14.3611 2.998 14.7811 2.66667 15.3224 2.424C15.8731 2.18133 16.5264 2.06 17.2824 2.06C17.8891 2.06 18.4257 2.144 18.8924 2.312C19.3591 2.47067 19.7464 2.68533 20.0544 2.956C20.3624 3.21733 20.5957 3.502 20.7544 3.81C20.9224 4.10867 21.0111 4.40267 21.0204 4.692C21.0204 4.76667 20.9924 4.83667 20.9364 4.902C20.8897 4.958 20.8197 4.986 20.7264 4.986H19.4244C19.3497 4.986 19.2751 4.96733 19.2004 4.93C19.1257 4.89267 19.0651 4.82267 19.0184 4.72C18.9624 4.43067 18.7804 4.18333 18.4724 3.978C18.1644 3.77267 17.7677 3.67 17.2824 3.67C16.7784 3.67 16.3724 3.76333 16.0644 3.95C15.7564 4.13667 15.6024 4.426 15.6024 4.818C15.6024 5.07933 15.6771 5.29867 15.8264 5.476C15.9851 5.644 16.2324 5.79333 16.5684 5.924C16.9137 6.05467 17.3664 6.19467 17.9264 6.344C18.7197 6.52133 19.3684 6.72667 19.8724 6.96C20.3764 7.19333 20.7451 7.492 20.9784 7.856C21.2117 8.21067 21.3284 8.66333 21.3284 9.214C21.3284 9.83 21.1604 10.3573 20.8244 10.796C20.4977 11.2253 20.0357 11.5567 19.4384 11.79C18.8411 12.0233 18.1457 12.14 17.3524 12.14ZM25.9848 12.14C25.2382 12.14 24.6082 12.0093 24.0948 11.748C23.5908 11.4867 23.2035 11.118 22.9328 10.642C22.6715 10.166 22.5222 9.61067 22.4848 8.976C22.4755 8.808 22.4708 8.60267 22.4708 8.36C22.4708 8.11733 22.4755 7.912 22.4848 7.744C22.5222 7.1 22.6762 6.54467 22.9468 6.078C23.2268 5.602 23.6188 5.23333 24.1228 4.972C24.6362 4.71067 25.2568 4.58 25.9848 4.58C26.7128 4.58 27.3288 4.71067 27.8328 4.972C28.3462 5.23333 28.7382 5.602 29.0088 6.078C29.2888 6.54467 29.4475 7.1 29.4848 7.744C29.4942 7.912 29.4988 8.11733 29.4988 8.36C29.4988 8.60267 29.4942 8.808 29.4848 8.976C29.4475 9.61067 29.2935 10.166 29.0228 10.642C28.7615 11.118 28.3742 11.4867 27.8608 11.748C27.3568 12.0093 26.7315 12.14 25.9848 12.14ZM25.9848 10.754C26.4795 10.754 26.8622 10.6 27.1328 10.292C27.4035 9.97467 27.5528 9.51267 27.5808 8.906C27.5902 8.766 27.5948 8.584 27.5948 8.36C27.5948 8.136 27.5902 7.954 27.5808 7.814C27.5528 7.21667 27.4035 6.75933 27.1328 6.442C26.8622 6.12467 26.4795 5.966 25.9848 5.966C25.4902 5.966 25.1075 6.12467 24.8368 6.442C24.5662 6.75933 24.4168 7.21667 24.3888 7.814C24.3795 7.954 24.3748 8.136 24.3748 8.36C24.3748 8.584 24.3795 8.766 24.3888 8.906C24.4168 9.51267 24.5662 9.97467 24.8368 10.292C25.1075 10.6 25.4902 10.754 25.9848 10.754ZM31.4 12C31.3066 12 31.2273 11.9673 31.162 11.902C31.0966 11.8367 31.064 11.7573 31.064 11.664V2.396C31.064 2.30267 31.0966 2.22333 31.162 2.158C31.2273 2.09267 31.3066 2.06 31.4 2.06H32.562C32.6553 2.06 32.7346 2.09267 32.8 2.158C32.8653 2.22333 32.898 2.30267 32.898 2.396V11.664C32.898 11.7573 32.8653 11.8367 32.8 11.902C32.7346 11.9673 32.6553 12 32.562 12H31.4ZM35.3918 12C35.2985 12 35.2192 11.9673 35.1538 11.902C35.0885 11.8367 35.0558 11.7573 35.0558 11.664V5.056C35.0558 4.96267 35.0885 4.88333 35.1538 4.818C35.2192 4.75267 35.2985 4.72 35.3918 4.72H36.5538C36.6565 4.72 36.7358 4.75267 36.7918 4.818C36.8572 4.88333 36.8898 4.96267 36.8898 5.056V11.664C36.8898 11.7573 36.8572 11.8367 36.7918 11.902C36.7358 11.9673 36.6565 12 36.5538 12H35.3918ZM35.3358 3.516C35.2332 3.516 35.1492 3.488 35.0838 3.432C35.0278 3.36667 34.9998 3.28267 34.9998 3.18V2.172C34.9998 2.07867 35.0278 1.99933 35.0838 1.934C35.1492 1.86867 35.2332 1.836 35.3358 1.836H36.6098C36.7125 1.836 36.7965 1.86867 36.8618 1.934C36.9272 1.99933 36.9598 2.07867 36.9598 2.172V3.18C36.9598 3.28267 36.9272 3.36667 36.8618 3.432C36.7965 3.488 36.7125 3.516 36.6098 3.516H35.3358ZM41.4492 12.14C40.9639 12.14 40.5346 12.0607 40.1612 11.902C39.7972 11.734 39.4939 11.5007 39.2512 11.202C39.0086 10.9033 38.8219 10.5533 38.6912 10.152C38.5606 9.74133 38.4859 9.29333 38.4672 8.808C38.4579 8.64 38.4532 8.49067 38.4532 8.36C38.4532 8.22 38.4579 8.066 38.4672 7.898C38.4859 7.43133 38.5559 6.99733 38.6772 6.596C38.8079 6.19467 38.9946 5.84467 39.2372 5.546C39.4892 5.238 39.7972 5 40.1612 4.832C40.5346 4.664 40.9639 4.58 41.4492 4.58C41.9532 4.58 42.3779 4.66867 42.7232 4.846C43.0779 5.014 43.3719 5.23333 43.6052 5.504V2.396C43.6052 2.30267 43.6332 2.22333 43.6892 2.158C43.7546 2.09267 43.8386 2.06 43.9412 2.06H45.1312C45.2246 2.06 45.3039 2.09267 45.3692 2.158C45.4346 2.22333 45.4672 2.30267 45.4672 2.396V11.664C45.4672 11.7573 45.4346 11.8367 45.3692 11.902C45.3039 11.9673 45.2246 12 45.1312 12H44.0252C43.9226 12 43.8386 11.9673 43.7732 11.902C43.7172 11.8367 43.6892 11.7573 43.6892 11.664V11.146C43.4559 11.4353 43.1572 11.6733 42.7932 11.86C42.4386 12.0467 41.9906 12.14 41.4492 12.14ZM41.9672 10.642C42.3592 10.642 42.6719 10.5533 42.9052 10.376C43.1386 10.1987 43.3112 9.97467 43.4232 9.704C43.5352 9.424 43.5959 9.13933 43.6052 8.85C43.6146 8.682 43.6192 8.50467 43.6192 8.318C43.6192 8.122 43.6146 7.94 43.6052 7.772C43.5959 7.492 43.5306 7.226 43.4092 6.974C43.2879 6.71267 43.1106 6.498 42.8772 6.33C42.6439 6.162 42.3406 6.078 41.9672 6.078C41.5752 6.078 41.2626 6.16667 41.0292 6.344C40.8052 6.512 40.6419 6.736 40.5392 7.016C40.4366 7.296 40.3759 7.604 40.3572 7.94C40.3479 8.22 40.3479 8.5 40.3572 8.78C40.3759 9.116 40.4366 9.424 40.5392 9.704C40.6419 9.984 40.8052 10.2127 41.0292 10.39C41.2626 10.558 41.5752 10.642 41.9672 10.642ZM47.6692 12C47.5758 12 47.4965 11.9673 47.4312 11.902C47.3658 11.8367 47.3332 11.7573 47.3332 11.664V5.056C47.3332 4.96267 47.3658 4.88333 47.4312 4.818C47.4965 4.75267 47.5758 4.72 47.6692 4.72H48.8312C48.9338 4.72 49.0132 4.75267 49.0692 4.818C49.1345 4.88333 49.1672 4.96267 49.1672 5.056V11.664C49.1672 11.7573 49.1345 11.8367 49.0692 11.902C49.0132 11.9673 48.9338 12 48.8312 12H47.6692ZM47.6132 3.516C47.5105 3.516 47.4265 3.488 47.3612 3.432C47.3052 3.36667 47.2772 3.28267 47.2772 3.18V2.172C47.2772 2.07867 47.3052 1.99933 47.3612 1.934C47.4265 1.86867 47.5105 1.836 47.6132 1.836H48.8872C48.9898 1.836 49.0738 1.86867 49.1392 1.934C49.2045 1.99933 49.2372 2.07867 49.2372 2.172V3.18C49.2372 3.28267 49.2045 3.36667 49.1392 3.432C49.0738 3.488 48.9898 3.516 48.8872 3.516H47.6132ZM54.3146 12C53.7546 12 53.2833 11.902 52.9006 11.706C52.5179 11.51 52.2333 11.2207 52.0466 10.838C51.8599 10.446 51.7666 9.96067 51.7666 9.382V6.204H50.6606C50.5673 6.204 50.4879 6.17133 50.4226 6.106C50.3573 6.04067 50.3246 5.96133 50.3246 5.868V5.056C50.3246 4.96267 50.3573 4.88333 50.4226 4.818C50.4879 4.75267 50.5673 4.72 50.6606 4.72H51.7666V2.396C51.7666 2.30267 51.7946 2.22333 51.8506 2.158C51.9159 2.09267 51.9999 2.06 52.1026 2.06H53.2366C53.3299 2.06 53.4093 2.09267 53.4746 2.158C53.5399 2.22333 53.5726 2.30267 53.5726 2.396V4.72H55.3226C55.4159 4.72 55.4953 4.75267 55.5606 4.818C55.6259 4.88333 55.6586 4.96267 55.6586 5.056V5.868C55.6586 5.96133 55.6259 6.04067 55.5606 6.106C55.4953 6.17133 55.4159 6.204 55.3226 6.204H53.5726V9.242C53.5726 9.62467 53.6379 9.92333 53.7686 10.138C53.9086 10.3527 54.1466 10.46 54.4826 10.46H55.4486C55.5419 10.46 55.6213 10.4927 55.6866 10.558C55.7519 10.6233 55.7846 10.7027 55.7846 10.796V11.664C55.7846 11.7573 55.7519 11.8367 55.6866 11.902C55.6213 11.9673 55.5419 12 55.4486 12H54.3146ZM58.3425 14.66C58.2679 14.66 58.2025 14.632 58.1465 14.576C58.0905 14.52 58.0625 14.4547 58.0625 14.38C58.0625 14.3427 58.0625 14.3053 58.0625 14.268C58.0719 14.24 58.0905 14.2027 58.1185 14.156L59.2105 11.566L56.5225 5.224C56.4852 5.13067 56.4665 5.06533 56.4665 5.028C56.4759 4.944 56.5085 4.874 56.5645 4.818C56.6205 4.75267 56.6905 4.72 56.7745 4.72H57.9085C58.0205 4.72 58.1045 4.748 58.1605 4.804C58.2165 4.86 58.2585 4.92067 58.2865 4.986L60.1485 9.564L62.0665 4.986C62.0945 4.91133 62.1365 4.85067 62.1925 4.804C62.2485 4.748 62.3325 4.72 62.4445 4.72H63.5645C63.6392 4.72 63.7045 4.748 63.7605 4.804C63.8259 4.86 63.8585 4.92533 63.8585 5C63.8585 5.056 63.8399 5.13067 63.8025 5.224L59.8405 14.394C59.8032 14.4687 59.7565 14.5293 59.7005 14.576C59.6445 14.632 59.5605 14.66 59.4485 14.66H58.3425Z" fill="black"/>
</svg>
