<svg width="265" height="50" viewBox="0 0 265 50" fill="none" xmlns="http://www.w3.org/2000/svg">
<path d="M85.5859 9.5625V38H79.7461V9.5625H85.5859ZM94.3359 9.5625V14.1523H71.1328V9.5625H94.3359ZM102.07 35.6172L107.676 16.8672H113.711L105.215 41.1836C105.033 41.7174 104.785 42.2904 104.473 42.9023C104.173 43.5143 103.763 44.0938 103.242 44.6406C102.734 45.2005 102.09 45.6562 101.309 46.0078C100.54 46.3594 99.5964 46.5352 98.4766 46.5352C97.9427 46.5352 97.5065 46.5026 97.168 46.4375C96.8294 46.3724 96.4258 46.2812 95.957 46.1641V42.043C96.1003 42.043 96.25 42.043 96.4062 42.043C96.5625 42.056 96.7122 42.0625 96.8555 42.0625C97.5977 42.0625 98.2031 41.9779 98.6719 41.8086C99.1406 41.6393 99.5182 41.3789 99.8047 41.0273C100.091 40.6888 100.319 40.2461 100.488 39.6992L102.07 35.6172ZM99.7266 16.8672L104.316 32.1797L105.117 38.1367L101.289 38.5469L93.6914 16.8672H99.7266ZM121.582 20.9297V46.125H115.957V16.8672H121.172L121.582 20.9297ZM134.961 27.1992V27.6094C134.961 29.1458 134.779 30.5716 134.414 31.8867C134.062 33.2018 133.542 34.3477 132.852 35.3242C132.161 36.2878 131.302 37.043 130.273 37.5898C129.258 38.1237 128.086 38.3906 126.758 38.3906C125.469 38.3906 124.349 38.1302 123.398 37.6094C122.448 37.0885 121.647 36.3594 120.996 35.4219C120.358 34.4714 119.844 33.3711 119.453 32.1211C119.062 30.8711 118.763 29.5299 118.555 28.0977V27.0234C118.763 25.487 119.062 24.0807 119.453 22.8047C119.844 21.5156 120.358 20.4023 120.996 19.4648C121.647 18.5143 122.441 17.7786 123.379 17.2578C124.329 16.737 125.443 16.4766 126.719 16.4766C128.06 16.4766 129.238 16.7305 130.254 17.2383C131.283 17.7461 132.142 18.4753 132.832 19.4258C133.535 20.3763 134.062 21.5091 134.414 22.8242C134.779 24.1393 134.961 25.5977 134.961 27.1992ZM129.316 27.6094V27.1992C129.316 26.3008 129.238 25.474 129.082 24.7188C128.939 23.9505 128.704 23.2799 128.379 22.707C128.066 22.1341 127.65 21.6914 127.129 21.3789C126.621 21.0534 126.003 20.8906 125.273 20.8906C124.505 20.8906 123.848 21.0143 123.301 21.2617C122.767 21.5091 122.331 21.8672 121.992 22.3359C121.654 22.8047 121.4 23.3646 121.23 24.0156C121.061 24.6667 120.957 25.4023 120.918 26.2227V28.9375C120.983 29.901 121.165 30.7669 121.465 31.5352C121.764 32.2904 122.227 32.8893 122.852 33.332C123.477 33.7747 124.297 33.9961 125.312 33.9961C126.055 33.9961 126.68 33.8333 127.188 33.5078C127.695 33.1693 128.105 32.707 128.418 32.1211C128.743 31.5352 128.971 30.8581 129.102 30.0898C129.245 29.3216 129.316 28.4948 129.316 27.6094ZM148.184 38.3906C146.543 38.3906 145.072 38.1302 143.77 37.6094C142.467 37.0755 141.361 36.3398 140.449 35.4023C139.551 34.4648 138.861 33.3776 138.379 32.1406C137.897 30.8906 137.656 29.5625 137.656 28.1562V27.375C137.656 25.7734 137.884 24.3086 138.34 22.9805C138.796 21.6523 139.447 20.5 140.293 19.5234C141.152 18.5469 142.194 17.7982 143.418 17.2773C144.642 16.7435 146.022 16.4766 147.559 16.4766C149.056 16.4766 150.384 16.724 151.543 17.2188C152.702 17.7135 153.672 18.4167 154.453 19.3281C155.247 20.2396 155.846 21.3333 156.25 22.6094C156.654 23.8724 156.855 25.2786 156.855 26.8281V29.1719H140.059V25.4219H151.328V24.9922C151.328 24.2109 151.185 23.5143 150.898 22.9023C150.625 22.2773 150.208 21.7826 149.648 21.418C149.089 21.0534 148.372 20.8711 147.5 20.8711C146.758 20.8711 146.12 21.0339 145.586 21.3594C145.052 21.6849 144.616 22.1406 144.277 22.7266C143.952 23.3125 143.704 24.0026 143.535 24.7969C143.379 25.5781 143.301 26.4375 143.301 27.375V28.1562C143.301 29.0026 143.418 29.7839 143.652 30.5C143.9 31.2161 144.245 31.8346 144.688 32.3555C145.143 32.8763 145.69 33.2799 146.328 33.5664C146.979 33.8529 147.715 33.9961 148.535 33.9961C149.551 33.9961 150.495 33.8008 151.367 33.4102C152.253 33.0065 153.014 32.401 153.652 31.5938L156.387 34.5625C155.944 35.2005 155.339 35.8125 154.57 36.3984C153.815 36.9844 152.904 37.4661 151.836 37.8438C150.768 38.2083 149.551 38.3906 148.184 38.3906ZM175.215 30.5586C175.215 30.0508 175.137 29.5951 174.98 29.1914C174.837 28.7747 174.564 28.3971 174.16 28.0586C173.757 27.707 173.19 27.362 172.461 27.0234C171.732 26.6849 170.788 26.3333 169.629 25.9688C168.34 25.5521 167.116 25.0833 165.957 24.5625C164.811 24.0417 163.796 23.4362 162.91 22.7461C162.038 22.043 161.348 21.2292 160.84 20.3047C160.345 19.3802 160.098 18.306 160.098 17.082C160.098 15.8971 160.358 14.8229 160.879 13.8594C161.4 12.8828 162.129 12.0495 163.066 11.3594C164.004 10.6562 165.111 10.1159 166.387 9.73828C167.676 9.36068 169.089 9.17188 170.625 9.17188C172.721 9.17188 174.551 9.54948 176.113 10.3047C177.676 11.0599 178.887 12.0951 179.746 13.4102C180.618 14.7253 181.055 16.2292 181.055 17.9219H175.234C175.234 17.0885 175.059 16.3594 174.707 15.7344C174.368 15.0964 173.848 14.5951 173.145 14.2305C172.454 13.8659 171.582 13.6836 170.527 13.6836C169.512 13.6836 168.665 13.8398 167.988 14.1523C167.311 14.4518 166.803 14.862 166.465 15.3828C166.126 15.8906 165.957 16.4635 165.957 17.1016C165.957 17.5833 166.074 18.0195 166.309 18.4102C166.556 18.8008 166.921 19.1654 167.402 19.5039C167.884 19.8424 168.477 20.1615 169.18 20.4609C169.883 20.7604 170.697 21.0534 171.621 21.3398C173.171 21.8086 174.531 22.3359 175.703 22.9219C176.888 23.5078 177.878 24.1654 178.672 24.8945C179.466 25.6237 180.065 26.4505 180.469 27.375C180.872 28.2995 181.074 29.3477 181.074 30.5195C181.074 31.7565 180.833 32.8633 180.352 33.8398C179.87 34.8164 179.173 35.6432 178.262 36.3203C177.35 36.9974 176.263 37.5117 175 37.8633C173.737 38.2148 172.324 38.3906 170.762 38.3906C169.355 38.3906 167.969 38.2083 166.602 37.8438C165.234 37.4661 163.991 36.8997 162.871 36.1445C161.764 35.3893 160.879 34.4258 160.215 33.2539C159.551 32.082 159.219 30.6953 159.219 29.0938H165.098C165.098 29.9792 165.234 30.7279 165.508 31.3398C165.781 31.9518 166.165 32.4466 166.66 32.8242C167.168 33.2018 167.767 33.4753 168.457 33.6445C169.16 33.8138 169.928 33.8984 170.762 33.8984C171.777 33.8984 172.611 33.7552 173.262 33.4688C173.926 33.1823 174.414 32.7852 174.727 32.2773C175.052 31.7695 175.215 31.1966 175.215 30.5586ZM193.438 33.9961C194.128 33.9961 194.74 33.8659 195.273 33.6055C195.807 33.332 196.224 32.9544 196.523 32.4727C196.836 31.9779 196.999 31.3984 197.012 30.7344H202.305C202.292 32.2188 201.895 33.5404 201.113 34.6992C200.332 35.8451 199.284 36.75 197.969 37.4141C196.654 38.0651 195.182 38.3906 193.555 38.3906C191.914 38.3906 190.482 38.1172 189.258 37.5703C188.047 37.0234 187.038 36.2682 186.23 35.3047C185.423 34.3281 184.818 33.1953 184.414 31.9062C184.01 30.6042 183.809 29.2109 183.809 27.7266V27.1602C183.809 25.6628 184.01 24.2695 184.414 22.9805C184.818 21.6784 185.423 20.5456 186.23 19.582C187.038 18.6055 188.047 17.8438 189.258 17.2969C190.469 16.75 191.888 16.4766 193.516 16.4766C195.247 16.4766 196.764 16.8086 198.066 17.4727C199.382 18.1367 200.41 19.0872 201.152 20.3242C201.908 21.5482 202.292 23 202.305 24.6797H197.012C196.999 23.9766 196.849 23.3385 196.562 22.7656C196.289 22.1927 195.885 21.737 195.352 21.3984C194.831 21.0469 194.186 20.8711 193.418 20.8711C192.598 20.8711 191.927 21.0469 191.406 21.3984C190.885 21.737 190.482 22.2057 190.195 22.8047C189.909 23.3906 189.707 24.0612 189.59 24.8164C189.486 25.5586 189.434 26.3398 189.434 27.1602V27.7266C189.434 28.5469 189.486 29.3346 189.59 30.0898C189.694 30.8451 189.889 31.5156 190.176 32.1016C190.475 32.6875 190.885 33.1497 191.406 33.4883C191.927 33.8268 192.604 33.9961 193.438 33.9961ZM211.191 21.4766V38H205.566V16.8672H210.859L211.191 21.4766ZM217.559 16.7305L217.461 21.9453C217.188 21.9062 216.855 21.8737 216.465 21.8477C216.087 21.8086 215.742 21.7891 215.43 21.7891C214.635 21.7891 213.945 21.8932 213.359 22.1016C212.786 22.2969 212.305 22.5898 211.914 22.9805C211.536 23.3711 211.25 23.8464 211.055 24.4062C210.872 24.9661 210.768 25.6042 210.742 26.3203L209.609 25.9688C209.609 24.6016 209.746 23.3451 210.02 22.1992C210.293 21.0404 210.69 20.0312 211.211 19.1719C211.745 18.3125 212.396 17.6484 213.164 17.1797C213.932 16.7109 214.811 16.4766 215.801 16.4766C216.113 16.4766 216.432 16.5026 216.758 16.5547C217.083 16.5938 217.35 16.6523 217.559 16.7305ZM226.152 16.8672V38H220.508V16.8672H226.152ZM220.156 11.3594C220.156 10.5391 220.443 9.86198 221.016 9.32812C221.589 8.79427 222.357 8.52734 223.32 8.52734C224.271 8.52734 225.033 8.79427 225.605 9.32812C226.191 9.86198 226.484 10.5391 226.484 11.3594C226.484 12.1797 226.191 12.8568 225.605 13.3906C225.033 13.9245 224.271 14.1914 223.32 14.1914C222.357 14.1914 221.589 13.9245 221.016 13.3906C220.443 12.8568 220.156 12.1797 220.156 11.3594ZM236.426 20.9297V46.125H230.801V16.8672H236.016L236.426 20.9297ZM249.805 27.1992V27.6094C249.805 29.1458 249.622 30.5716 249.258 31.8867C248.906 33.2018 248.385 34.3477 247.695 35.3242C247.005 36.2878 246.146 37.043 245.117 37.5898C244.102 38.1237 242.93 38.3906 241.602 38.3906C240.312 38.3906 239.193 38.1302 238.242 37.6094C237.292 37.0885 236.491 36.3594 235.84 35.4219C235.202 34.4714 234.688 33.3711 234.297 32.1211C233.906 30.8711 233.607 29.5299 233.398 28.0977V27.0234C233.607 25.487 233.906 24.0807 234.297 22.8047C234.688 21.5156 235.202 20.4023 235.84 19.4648C236.491 18.5143 237.285 17.7786 238.223 17.2578C239.173 16.737 240.286 16.4766 241.562 16.4766C242.904 16.4766 244.082 16.7305 245.098 17.2383C246.126 17.7461 246.986 18.4753 247.676 19.4258C248.379 20.3763 248.906 21.5091 249.258 22.8242C249.622 24.1393 249.805 25.5977 249.805 27.1992ZM244.16 27.6094V27.1992C244.16 26.3008 244.082 25.474 243.926 24.7188C243.783 23.9505 243.548 23.2799 243.223 22.707C242.91 22.1341 242.493 21.6914 241.973 21.3789C241.465 21.0534 240.846 20.8906 240.117 20.8906C239.349 20.8906 238.691 21.0143 238.145 21.2617C237.611 21.5091 237.174 21.8672 236.836 22.3359C236.497 22.8047 236.243 23.3646 236.074 24.0156C235.905 24.6667 235.801 25.4023 235.762 26.2227V28.9375C235.827 29.901 236.009 30.7669 236.309 31.5352C236.608 32.2904 237.07 32.8893 237.695 33.332C238.32 33.7747 239.141 33.9961 240.156 33.9961C240.898 33.9961 241.523 33.8333 242.031 33.5078C242.539 33.1693 242.949 32.707 243.262 32.1211C243.587 31.5352 243.815 30.8581 243.945 30.0898C244.089 29.3216 244.16 28.4948 244.16 27.6094ZM263.652 16.8672V20.8516H251.348V16.8672H263.652ZM254.395 11.6523H260.02V31.6328C260.02 32.2448 260.098 32.7135 260.254 33.0391C260.423 33.3646 260.671 33.5924 260.996 33.7227C261.322 33.8398 261.732 33.8984 262.227 33.8984C262.578 33.8984 262.891 33.8854 263.164 33.8594C263.451 33.8203 263.691 33.7812 263.887 33.7422L263.906 37.8828C263.424 38.0391 262.904 38.1628 262.344 38.2539C261.784 38.3451 261.165 38.3906 260.488 38.3906C259.251 38.3906 258.171 38.1888 257.246 37.7852C256.335 37.3685 255.632 36.7044 255.137 35.793C254.642 34.8815 254.395 33.6836 254.395 32.1992V11.6523Z" fill="#007ACC"/>
<g clip-path="url(#clip0_3_22)">
<path d="M0 25V0H50V50H0" fill="#007ACC"/>
<path d="M10.9625 25.0875V27.125H17.4625V45.625H22.075V27.125H28.575V25.125C28.575 24 28.575 23.0875 28.525 23.0625C28.525 23.025 24.5625 23.0125 19.75 23.0125L11 23.05V25.1L10.9625 25.0875ZM40.175 23C41.45 23.3 42.425 23.875 43.3 24.7875C43.7625 25.2875 44.45 26.1625 44.5 26.3875C44.5 26.4625 42.3375 27.925 41.025 28.7375C40.975 28.775 40.775 28.5625 40.575 28.2375C39.925 27.3125 39.2625 26.9125 38.225 26.8375C36.725 26.7375 35.725 27.525 35.725 28.8375C35.725 29.2375 35.8 29.4625 35.95 29.7875C36.2875 30.475 36.9125 30.8875 38.85 31.7375C42.425 33.275 43.975 34.2875 44.9125 35.7375C45.975 37.3625 46.2125 39.9125 45.5 41.825C44.7 43.9125 42.75 45.325 39.9625 45.7875C39.0875 45.9375 37.0875 45.9125 36.15 45.75C34.15 45.375 32.2375 44.375 31.0625 43.0875C30.6 42.5875 29.7125 41.25 29.7625 41.1625L30.2375 40.8625L32.1125 39.775L33.525 38.95L33.85 39.3875C34.2625 40.0375 35.1875 40.9125 35.725 41.2125C37.35 42.05 39.525 41.9375 40.6 40.9625C41.0625 40.5375 41.2625 40.0875 41.2625 39.4625C41.2625 38.8875 41.175 38.625 40.8875 38.1875C40.4875 37.6375 39.6875 37.1875 37.4375 36.1875C34.85 35.0875 33.75 34.3875 32.725 33.3125C32.1375 32.6625 31.6 31.65 31.35 30.8125C31.1625 30.0875 31.1 28.3125 31.275 27.6C31.8125 25.1 33.7 23.35 36.4 22.85C37.275 22.675 39.3375 22.75 40.2 22.975L40.175 23Z" fill="white"/>
</g>
<defs>
<clipPath id="clip0_3_22">
<rect width="50" height="50" fill="white"/>
</clipPath>
</defs>
</svg>
